<?xml version="1.0" encoding="UTF-8" standalone="no"?>
<!-- Created with Inkscape (http://www.inkscape.org/) -->

<svg
   width="210mm"
   height="297mm"
   viewBox="0 0 210 297"
   version="1.1"
   id="svg1"
   xml:space="preserve"
   inkscape:export-filename="bitmap.svg"
   inkscape:export-xdpi="96"
   inkscape:export-ydpi="96"
   xmlns:inkscape="http://www.inkscape.org/namespaces/inkscape"
   xmlns:sodipodi="http://sodipodi.sourceforge.net/DTD/sodipodi-0.dtd"
   xmlns="http://www.w3.org/2000/svg"
   xmlns:svg="http://www.w3.org/2000/svg"><sodipodi:namedview
     id="namedview1"
     pagecolor="#ffffff"
     bordercolor="#000000"
     borderopacity="0.25"
     inkscape:showpageshadow="2"
     inkscape:pageopacity="0.0"
     inkscape:pagecheckerboard="0"
     inkscape:deskcolor="#d1d1d1"
     inkscape:document-units="mm"><inkscape:page
       x="0"
       y="0"
       width="210"
       height="297"
       id="page2"
       margin="0"
       bleed="0" /></sodipodi:namedview><defs
     id="defs1" /><g
     inkscape:label="Layer 1"
     inkscape:groupmode="layer"
     id="layer1"><path
       style="fill:#000000;fill-opacity:1;stroke-width:4.68713"
       d="m 95.045662,234.08949 c -2.452193,-2.50212 -3.316318,-9.32762 -1.515819,-11.97318 0.868454,-1.27605 2.463288,-3.00862 4.429528,-4.10687 1.692015,-0.945 3.747879,-1.34479 4.820189,-1.4576 3.73317,-0.39301 10.29327,5.48458 9.45403,10.38259 -0.28403,1.65737 -1.14504,4.54442 -2.54455,6.35975 -3.24638,4.21113 -10.888888,4.62623 -14.643378,0.79531 z m 11.575568,-1.96851 c 2.50201,-2.55295 2.45803,-6.63319 -0.10262,-9.52024 -2.6466,-2.98396 -5.45874,-2.89973 -8.786053,0.26323 -1.735642,1.64992 -2.070893,3.0699 -2.039723,4.50765 0.02678,1.32451 0.291046,2.66403 1.808195,4.21241 2.949271,3.00929 6.492551,3.21788 9.120131,0.53684 z M 83.443046,218.2175 c -1.812877,-3.90675 -3.887458,-10.10753 -4.610213,-13.7796 -0.722724,-3.67202 -1.722784,-6.67644 -2.222333,-6.67644 -0.499581,0 -2.781414,0.79858 -5.070784,1.77455 -6.06443,2.58546 -20.400231,3.75014 -26.278991,2.13491 -2.730732,-0.75026 -6.596127,-3.10129 -8.589657,-5.22444 -3.215819,-3.42493 -3.62468,-4.73412 -3.62468,-11.60736 0,-7.13651 0.400444,-8.29007 5.081077,-14.63685 2.794563,-3.78944 7.064539,-8.82092 9.488817,-11.18115 l 4.407755,-4.29137 -5.892661,-6.35735 C 35.612949,137.02431 33.090689,132.10696 33.067135,122.902 c -0.02004,-7.68436 0.188461,-8.26574 4.177125,-11.66585 6.615736,-5.63976 18.945534,-6.30703 33.568227,-1.81665 6.005555,1.84414 7.045282,1.53548 7.045282,-2.09189 0,-3.7821 4.638401,-16.127944 8.015808,-21.335504 5.485098,-8.457145 14.581933,-11.867471 22.972913,-8.612277 4.76374,1.847968 9.89877,10.017697 13.90842,22.127957 l 3.76892,11.383104 4.82508,-1.76524 c 2.65375,-0.97091 9.38283,-2.07993 14.95359,-2.46453 10.87714,-0.75094 10.09982,-1.37304 7.67315,4.66465 -0.66003,1.64216 -2.12403,3.70961 -2.72197,4.47507 -0.57366,0.73443 -0.70118,1.44544 -2.25344,1.78842 -5.24028,1.15786 -19.77659,4.07914 -20.41514,5.77716 -0.36799,0.97875 -0.2994,4.72984 0.15296,8.33585 0.76441,6.093 1.24515,6.85066 6.80216,10.7204 7.19194,5.00829 8.39727,4.61153 15.8222,-5.20843 5.00908,-6.62474 5.31345,-6.80901 11.24694,-6.80901 4.51155,0 6.09851,0.47296 6.09851,1.81807 0,2.30404 -5.04145,9.37878 -11.99464,16.83216 l -5.39771,5.78604 6.5477,7.48851 c 6.42502,7.34831 10.5324,13.65705 9.51649,14.61704 -0.28201,0.26715 -2.72329,0.83567 -5.42421,1.26412 -4.87492,0.77332 -4.96302,0.71452 -12.03718,-8.02674 l -7.12626,-8.80577 -6.55599,4.67464 c -6.39132,4.55728 -6.57667,4.86104 -7.37899,12.09712 -0.45239,4.0824 -0.37261,7.86677 0.17709,8.40971 0.85053,0.8393 5.44885,1.87851 19.41611,4.38808 2.87111,0.51587 7.44116,8.42078 6.12475,10.59411 -1.0814,1.78533 -13.963,0.65496 -22.53572,-1.97756 -3.06528,-0.94128 -5.64213,-1.59115 -5.72641,-1.44419 -0.0845,0.14666 -2.06813,5.90142 -4.40859,12.78768 -2.54862,7.49877 -4.97215,12.63636 -6.04258,12.80951 -0.98302,0.15917 -3.00153,-1.66496 -4.4856,-4.05323 -2.68954,-4.32818 -2.69074,-4.35976 -0.37862,-9.69267 1.2757,-2.94272 2.83069,-7.67171 3.45543,-10.50887 l 1.13589,-5.15853 -6.9404,-3.38478 -6.94049,-3.38472 -7.014541,3.1653 c -3.857971,1.74087 -7.008564,3.61906 -7.001221,4.17372 0.02341,1.64863 3.301086,11.92736 5.415896,16.97531 1.885254,4.49998 1.851935,4.87228 -0.810829,9.06653 -1.527251,2.4056 -3.402708,4.38082 -4.167729,4.38935 -0.764988,0.0112 -2.874154,-3.18095 -4.687031,-7.08767 z m 5.582054,-7.92694 c -1.488882,-3.53146 -3.029794,-9.20099 -3.42421,-12.59891 l -0.717079,-6.178 6.957497,-3.13956 c 3.826642,-1.72674 8.344952,-3.13951 10.040702,-3.13951 2.94832,0 11.60426,3.82563 15.05788,6.65511 0.9004,0.73766 2.55783,1.4751 3.68316,1.63865 1.1253,0.16341 4.25595,0.94088 6.95688,1.72734 6.96649,2.02841 23.07379,5.06016 23.66719,4.45465 0.27366,-0.27921 -0.0524,-1.51217 -0.72532,-2.73913 -0.81943,-1.49396 -4.4954,-2.94903 -11.12815,-4.40491 -9.98305,-2.19131 -28.38777,-10.14556 -28.38777,-12.2687 0,-0.62981 3.45292,-3.26109 7.67316,-5.84732 18.69575,-11.45698 36.89634,-26.44147 43.48241,-35.79902 l 3.80788,-5.4103 -3.84835,0.003 c -3.15524,0.003 -4.80845,1.19825 -9.17911,6.6372 -2.93195,3.64857 -7.62793,8.10698 -10.43554,9.90757 -2.8076,1.8006 -5.83906,4.3297 -6.73657,5.62022 -0.89755,1.2905 -3.99578,3.48015 -6.885,4.86586 -2.88921,1.38575 -6.54688,3.76342 -8.12808,5.28377 -4.355,4.18715 -17.43684,12.15787 -19.95543,12.15869 -1.223475,3.5e-4 -5.221983,1.44759 -8.885561,3.216 -3.663594,1.76842 -7.220404,2.86257 -7.904101,2.43147 -1.610546,-1.01563 -2.314156,-18.52795 -0.703067,-18.52795 0.675216,0 1.917961,11.83203 1.917961,13.61191 0,1.77989 0.414378,3.04539 0.920741,2.81231 0.506427,-0.23304 2.992596,-1.23892 5.524717,-2.23508 2.532121,-0.9962 4.603928,-2.25221 4.603928,-2.79121 0,-0.53897 -2.658965,-2.35473 -5.908726,-4.03504 -3.249826,-1.68031 -6.601339,-3.90662 -7.447795,-4.94726 -0.938682,-1.15406 -1.626965,-6.29808 -1.764455,-13.18678 -0.199492,-9.98981 0.0582,-11.51054 2.230012,-13.16446 3.203793,-2.43985 28.383476,-15.15998 35.209536,-17.78693 2.91765,-1.12286 6.96224,-2.76907 8.98797,-3.65828 2.02568,-0.88919 7.65132,-2.35209 12.50137,-3.25088 7.15952,-1.32678 9.05974,-2.17508 10.10224,-4.50966 1.16907,-2.61797 0.98409,-2.87375 -2.06581,-2.85591 -1.84245,0.0112 -6.66474,0.88589 -10.71614,1.94475 -4.05145,1.05882 -9.82187,2.46282 -12.82316,3.11994 -3.00133,0.65706 -5.50656,1.98815 -6.15479,2.34685 -1.43723,0.79529 -13.15412,5.45932 -20.615625,8.91071 -2.723872,1.25995 -4.509858,2.69714 -5.21775,3.24321 -0.876792,0.67642 -2.080515,1.22583 -3.950457,2.37566 -2.165188,1.33139 -4.31179,2.5623 -6.833746,3.89142 -2.195711,1.15718 -2.840804,0.22237 -1.835084,-1.04987 0.707475,-0.89509 1.660155,-3.41243 2.116974,-5.59408 0.955053,-4.56054 3.459772,-6.01034 7.022466,-4.06488 1.364444,0.74512 3.917537,0.98681 5.673575,0.53712 2.958331,-0.75765 2.670733,-1.0586 -3.917522,-4.10005 l -7.110235,-3.28239 0.779596,-4.97443 c 1.026692,-6.55116 7.843123,-23.150984 10.70607,-26.072244 1.320415,-1.34725 4.018775,-2.30511 6.493688,-2.30511 3.34619,0 4.86104,0.85403 7.22128,4.07125 4.23726,5.77565 6.4053,10.61044 8.14525,18.164014 0.93675,4.06662 2.17099,6.57662 3.23399,6.57662 2.38817,0 2.15328,-3.19888 -0.925,-12.596834 -2.88111,-8.79594 -8.38993,-17.965686 -11.5323,-19.196062 -4.62644,-1.811453 -11.444876,-0.753135 -15.041384,2.334662 -4.302108,3.6937 -9.610882,14.60794 -11.489674,23.621644 -0.740938,3.55462 -1.877365,6.80842 -2.525435,7.23065 -0.648118,0.4223 -5.098218,-0.28206 -9.889293,-1.56589 -28.568152,-7.65296 -41.308702,3.91536 -27.250254,24.74301 2.488846,3.6872 6.67418,8.68503 9.300708,11.10626 2.626544,2.42119 4.775538,5.13184 4.775538,6.02366 0,0.89179 -2.512175,4.13461 -5.582567,7.20622 -8.779177,8.78267 -14.306299,17.73104 -14.306299,23.16181 0,5.13898 3.104335,10.30722 7.730117,12.86923 4.294604,2.37868 21.09953,1.16156 28.341691,-2.05263 6.731693,-2.98765 7.339967,-2.55719 9.441613,6.68169 0.7837,3.44492 2.622905,8.95771 4.087191,12.25073 2.338882,5.2599 2.880937,5.7642 4.461885,4.15106 1.580964,-1.61309 1.4707,-2.61622 -0.907577,-8.2571 z M 45.323481,193.75917 c -1.350446,-0.78141 -2.861279,-2.03259 -3.357348,-2.78047 -1.60641,-2.42159 -0.942996,-8.74707 1.491255,-14.21925 2.602718,-5.85093 14.173571,-19.08412 16.686773,-19.08412 0.86544,0 4.853831,2.3097 8.863177,5.13263 l 7.289573,5.13261 0.825869,10.10385 c 0.45427,5.55719 0.391161,10.51646 -0.139975,11.02075 -1.499032,1.42248 -21.239537,6.19548 -25.447157,6.15283 -2.065987,-0.0178 -4.861287,-0.67745 -6.211766,-1.45883 z m 20.060941,-4.69215 c 4.956351,-1.31343 9.153053,-2.57214 9.325961,-2.79711 0.508544,-0.66151 -1.173112,-15.90094 -1.802647,-16.33584 -0.316091,-0.21813 -3.298537,-2.32839 -6.627762,-4.68897 l -6.053079,-4.29195 -6.454645,7.24711 c -3.693241,4.14661 -7.274245,9.70138 -8.37038,12.98389 -1.757865,5.26413 -1.748517,5.92544 0.114321,8.02535 2.618191,2.95199 8.346137,2.91094 19.868536,-0.1425 z m 4.186312,-30.06828 c -3.384622,-2.88102 -3.501348,-5.26348 -0.398135,-8.12886 3.589357,-3.31438 6.772595,-2.07079 7.234416,2.8263 0.355454,3.7679 -1.375379,7.79985 -3.303362,7.69554 -0.423629,-0.0248 -2.013492,-1.09973 -3.532791,-2.39298 z m 4.232521,-4.32349 c 0.03704,-1.20024 -0.988275,-3.01768 -2.155872,-2.72556 -1.582279,0.39581 -2.795027,2.41582 -1.698524,3.35823 0.867364,0.74548 2.265335,3.80454 3.186108,3.54717 0.704605,-0.19681 0.63962,-3.19497 0.668288,-4.17984 z M 51.836506,143.48331 c -9.309575,-9.3484 -12.766221,-17.98218 -10.06993,-25.15169 1.823636,-4.84892 12.967605,-5.01992 30.995412,-0.47559 l 5.339703,1.346 -0.444969,9.99916 c -0.389317,8.74319 -0.800953,10.25472 -3.278511,12.03368 -1.558389,1.11896 -4.66266,3.58474 -6.898332,5.47943 -2.235721,1.89466 -5.174234,3.44489 -6.530084,3.44489 -1.355866,0 -5.45683,-3.00415 -9.113289,-6.67588 z m 19.716438,-4.59833 c 1.878439,-1.43265 2.555354,-3.62911 2.84959,-9.24638 l 0.386046,-7.36732 -5.459572,-1.65537 c -7.451337,-2.25927 -17.667463,-3.45888 -20.804684,-2.4429 -7.368892,2.38639 -4.821314,12.00239 6.050546,22.83809 l 6.5322,6.51058 3.991197,-3.37884 c 2.195171,-1.85836 5.099821,-4.22438 6.454789,-5.25786 z m 48.240026,67.87067 c 1.79432,-5.28504 3.00476,-10.03454 2.68991,-10.5544 -1.59341,-2.63056 -3.81706,-0.25363 -5.26881,5.63144 -0.89228,3.61715 -2.34955,8.04298 -3.23848,9.83523 -1.20316,2.42581 -1.26099,3.62094 -0.22655,4.67666 1.92795,1.96721 2.34483,1.30585 6.0437,-9.58893 z m 5.404,-24.50145 c 0.40325,-1.63921 0.55186,-4.44214 0.33047,-6.22877 l -0.40279,-3.24836 -5.20894,3.41016 c -2.86495,1.87562 -5.21289,3.73071 -5.21776,4.12246 -0.01,0.73105 7.25814,4.70097 8.86868,4.84474 0.49354,0.0426 1.22729,-1.26102 1.63046,-2.90023 z m 37.37267,-7.78308 c 0,-1.01531 -3.96234,-6.07045 -9.9744,-12.72553 -3.34136,-3.69871 -5.42986,-5.13862 -6.24574,-4.30609 -1.59078,1.62315 11.07372,17.52664 14.07164,17.67044 1.18168,0.0569 2.1485,-0.23091 2.1485,-0.63882 z m -52.77197,-4.90733 c 3.90121,-2.41807 7.42645,-5.28274 7.83381,-6.36592 0.40739,-1.08313 0.73599,-6.01016 0.73028,-10.9489 l -0.01,-8.97955 -7.6628,-4.10666 c -4.21456,-2.2586 -8.39058,-4.09067 -9.28004,-4.07123 -0.88946,0.0178 -5.160541,2.14929 -9.491269,4.73297 l -7.873957,4.69759 -0.02341,9.55494 c -0.01283,6.15175 0.52307,10.01141 1.511105,10.83652 2.312618,1.93114 14.885931,8.96279 16.106521,9.00762 0.58694,0.0249 4.25903,-1.93927 8.16024,-4.35738 z m 16.84955,-17.38522 c 0.7107,-6.43372 1.59153,-6.90859 6.10117,-3.28911 2.85073,2.28797 5.26705,2.39636 5.26705,0.23622 0,-0.48709 -2.7623,-2.73087 -6.13854,-4.98606 l -6.13852,-4.10041 v -7.39299 c 0,-4.06613 -0.58081,-7.75922 -1.2907,-8.20688 -1.13552,-0.71609 -16.24759,4.87101 -18.65126,6.89559 -0.50181,0.4228 3.00497,2.92751 7.79297,5.56621 l 8.7054,4.79766 -0.42687,10.45938 c -0.41579,10.19748 -0.36937,10.40097 1.8571,8.12855 1.27436,-1.30057 2.56587,-4.88427 2.92201,-8.10816 z m 5.36641,-0.96655 c -1.14588,-1.16916 -1.39492,-3.13424 -3.04793,-1.48038 -2.8326,2.83407 0.19783,7.36835 2.84073,5.93718 1.43951,-0.77951 1.35301,-3.28761 0.2072,-4.4568 z M 88.804828,127.96493 c 0.281024,-0.19503 -0.430604,-1.41946 -1.483559,-1.41946 -0.466712,0 -1.766861,-0.1457 -2.213145,0.15485 -0.56083,0.37784 -1.361975,1.35353 -1.59889,1.98325 -0.673228,1.79015 0.712493,2.81899 2.607464,1.33758 1.197115,-0.93598 2.406752,-1.86127 2.68813,-2.05622 z m 19.745622,-9.80059 c 3.03858,-1.21266 5.93564,-2.56762 6.4379,-3.01088 1.51959,-1.34128 -3.42725,-17.281744 -6.99176,-22.529994 -4.28376,-6.30728 -6.47853,-7.10855 -10.061975,-3.67356 -2.678397,2.56738 -10.255216,20.266154 -10.255216,23.955144 0,1.79985 12.108162,8.55622 14.118641,7.87825 0.67525,-0.22771 3.71386,-1.40628 6.75241,-2.61896 z m 48.43869,80.28013 c -7.1314,-7.27651 -1.66769,-19.34236 8.03149,-17.73637 5.43249,0.8995 7.37064,3.61103 7.37064,10.31177 0,4.24096 -0.64969,5.82824 -3.23483,7.90307 -4.29113,3.4441 -8.48458,3.27921 -12.1673,-0.47847 z m 11.65245,-2.48052 c 0.80402,-0.98847 1.28599,-3.65321 1.07111,-5.92169 -0.8481,-8.95353 -13.1925,-8.27366 -13.26284,0.73047 -0.0465,5.72029 8.72444,9.45411 12.19173,5.19122 z m -12.0541,-71.28448 c -1.6399,-1.67334 -2.61184,-3.75003 -2.61184,-7.10894 0,-2.27005 0.51756,-3.42428 1.15782,-4.5192 0.58087,-0.99344 1.19821,-1.97568 2.83224,-2.99226 4.47558,-2.78429 9.07556,-2.82495 11.30301,-0.55215 0.8103,0.82681 3.12255,4.02265 3.12255,7.6352 0,5.36736 -0.49888,6.92475 -2.72857,8.51831 -3.83248,2.73896 -10.11129,2.04326 -13.07521,-0.98096 z m 10.97365,-0.87117 c 1.79014,-0.97752 2.37473,-2.64067 2.37473,-6.75578 0,-3.16119 -1.44033,-4.16893 -2.61793,-5.01073 -1.2376,-0.88472 -2.29357,-1.49484 -5.67869,-0.36646 -5.32512,1.77494 -6.55901,5.50252 -3.43298,10.37056 2.08771,3.2511 5.46401,3.88725 9.35487,1.7625 z"
       id="path1"
       sodipodi:nodetypes="sssssssssssssscsssssssscscsssssscsssssssssssscscsscsccssscssssscccscssccccscssscssssssscsssssssssssssssssssssscsssssssssssscssssssssssscssssssssssccssssscsccsscssscsssccssscssssssssssccsssssscssscsssssssssssscsscssssssscsccscsccscccsssscssssccssssssscsssscsssssssssssssscssssssssssssssss" /></g></svg>
