<?xml version="1.0" encoding="UTF-8" standalone="no"?>
<!-- Generator: Adobe Illustrator 27.5.0, SVG Export Plug-In . SVG Version: 6.00 Build 0)  -->

<svg
   version="1.1"
   x="0px"
   y="0px"
   viewBox="0 0 639872.01 639872.01"
   xml:space="preserve"
   id="svg70"
   width="639872"
   height="639872"
   xmlns="http://www.w3.org/2000/svg"
   xmlns:svg="http://www.w3.org/2000/svg"><defs
   id="defs70" />

<g
   id="Objects"
   transform="matrix(1,0,0,1.0036567,0,-0.14070906)">
	<g
   id="g63">
		<g
   id="g46">
			<path
   style="clip-rule:evenodd;fill-rule:evenodd"
   d="m 304.121,776.012 c 0.324,-10e-4 0.621,-0.087 0.889,-0.256 0.272,-0.171 0.487,-0.431 0.65,-0.784 0.16,-0.354 0.239,-0.793 0.239,-1.317 0,-0.499 -0.08,-0.925 -0.239,-1.279 -0.163,-0.358 -0.381,-0.634 -0.656,-0.818 -0.27,-0.188 -0.564,-0.279 -0.883,-0.283 v -1.341 c 0.302,0.042 0.57,0.122 0.805,0.238 0.369,0.184 0.727,0.469 1.077,0.85 v -2.748 c 0,-0.382 0.076,-0.67 0.23,-0.866 0.151,-0.198 0.369,-0.292 0.649,-0.292 0.283,0 0.501,0.089 0.652,0.271 0.154,0.178 0.23,0.442 0.23,0.792 v 8.209 c 0,0.355 -0.082,0.621 -0.245,0.797 -0.165,0.178 -0.378,0.266 -0.637,0.266 -0.254,0 -0.464,-0.088 -0.629,-0.274 -0.166,-0.182 -0.25,-0.447 -0.25,-0.788 v -0.185 c -0.25,0.288 -0.496,0.519 -0.739,0.699 -0.243,0.18 -0.505,0.315 -0.792,0.409 -0.113,0.037 -0.23,0.066 -0.351,0.089 z m -1.779,-2.358 c 0,0.503 0.078,0.932 0.235,1.286 0.157,0.356 0.373,0.621 0.644,0.8 0.272,0.183 0.57,0.271 0.894,0.271 h 0.006 v 1.387 c -0.184,0.033 -0.377,0.05 -0.578,0.05 -0.446,0 -0.859,-0.093 -1.237,-0.281 -0.379,-0.188 -0.709,-0.457 -0.986,-0.809 -0.278,-0.347 -0.488,-0.761 -0.631,-1.234 -0.144,-0.472 -0.215,-0.983 -0.215,-1.534 0,-1.162 0.284,-2.069 0.853,-2.72 0.568,-0.649 1.316,-0.975 2.243,-0.975 0.195,0 0.379,0.012 0.552,0.037 v 1.341 h -0.02 c -0.341,0 -0.646,0.095 -0.914,0.287 -0.267,0.193 -0.475,0.474 -0.622,0.835 -0.151,0.359 -0.224,0.782 -0.224,1.259 z"
   id="path37" />
			<path
   style="clip-rule:evenodd;fill-rule:evenodd"
   d="m 312.873,773.065 h 1.686 c -0.044,-0.636 -0.216,-1.112 -0.516,-1.427 -0.296,-0.315 -0.688,-0.474 -1.171,-0.475 v -1.295 h 0.058 c 0.728,0 1.351,0.15 1.869,0.461 0.523,0.306 0.912,0.701 1.173,1.188 0.259,0.485 0.386,0.983 0.386,1.487 0,0.465 -0.135,0.773 -0.402,0.91 -0.269,0.139 -0.644,0.208 -1.131,0.208 h -1.952 z m 0,4.38 v -1.235 c 0.046,0.003 0.092,0.005 0.14,0.005 0.222,0 0.425,-0.024 0.61,-0.076 0.184,-0.05 0.359,-0.137 0.534,-0.248 0.174,-0.11 0.333,-0.23 0.478,-0.356 0.145,-0.128 0.332,-0.301 0.565,-0.517 0.096,-0.083 0.232,-0.127 0.409,-0.127 0.191,0 0.345,0.055 0.464,0.158 0.118,0.104 0.178,0.253 0.178,0.442 0,0.169 -0.066,0.364 -0.197,0.592 -0.133,0.225 -0.331,0.441 -0.598,0.648 -0.264,0.206 -0.598,0.375 -1.002,0.516 -0.402,0.134 -0.864,0.201 -1.388,0.201 -0.066,0 -0.131,-10e-4 -0.193,-0.003 z m -1.687,-4.38 h 1.687 v 1.058 h -1.687 c 0.003,0.423 0.088,0.793 0.254,1.116 0.166,0.325 0.386,0.567 0.664,0.729 0.235,0.143 0.491,0.223 0.769,0.242 v 1.235 c -1.103,-0.035 -1.967,-0.376 -2.595,-1.019 -0.664,-0.681 -0.996,-1.606 -0.996,-2.771 0,-0.552 0.082,-1.064 0.246,-1.534 0.165,-0.469 0.403,-0.874 0.716,-1.21 0.314,-0.334 0.699,-0.592 1.16,-0.773 0.442,-0.173 0.933,-0.262 1.469,-0.268 v 1.295 h -0.005 c -0.462,0 -0.845,0.158 -1.14,0.478 -0.299,0.32 -0.48,0.795 -0.542,1.422 z"
   id="path38" />
			<path
   style="clip-rule:evenodd;fill-rule:evenodd"
   d="m 323.92,775.018 c 0,0.51 -0.125,0.95 -0.375,1.315 -0.251,0.368 -0.62,0.646 -1.108,0.834 -0.488,0.188 -1.083,0.281 -1.782,0.281 -0.669,0 -1.242,-0.101 -1.719,-0.305 -0.479,-0.204 -0.829,-0.464 -1.058,-0.767 -0.226,-0.308 -0.341,-0.616 -0.341,-0.925 0,-0.205 0.072,-0.38 0.218,-0.524 0.147,-0.146 0.329,-0.221 0.554,-0.221 0.194,0 0.344,0.05 0.45,0.146 0.103,0.092 0.204,0.228 0.3,0.399 0.19,0.332 0.418,0.58 0.684,0.741 0.267,0.166 0.63,0.247 1.089,0.247 0.372,0 0.677,-0.083 0.917,-0.247 0.238,-0.167 0.357,-0.354 0.357,-0.568 0,-0.328 -0.125,-0.567 -0.371,-0.719 -0.248,-0.147 -0.656,-0.294 -1.226,-0.429 -0.639,-0.159 -1.162,-0.322 -1.563,-0.5 -0.401,-0.176 -0.722,-0.405 -0.964,-0.691 -0.241,-0.289 -0.362,-0.639 -0.362,-1.058 0,-0.371 0.11,-0.725 0.334,-1.06 0.222,-0.33 0.551,-0.592 0.984,-0.791 0.435,-0.199 0.959,-0.296 1.57,-0.296 0.483,0 0.915,0.049 1.299,0.148 0.385,0.102 0.705,0.234 0.963,0.405 0.257,0.167 0.452,0.353 0.585,0.558 0.134,0.205 0.202,0.404 0.202,0.6 0,0.214 -0.072,0.39 -0.215,0.524 -0.142,0.134 -0.347,0.204 -0.61,0.204 -0.191,0 -0.354,-0.054 -0.488,-0.161 -0.133,-0.108 -0.287,-0.272 -0.46,-0.492 -0.14,-0.181 -0.306,-0.329 -0.496,-0.438 -0.192,-0.108 -0.451,-0.165 -0.779,-0.165 -0.336,0 -0.614,0.076 -0.837,0.221 -0.223,0.14 -0.335,0.319 -0.335,0.529 0,0.199 0.082,0.358 0.247,0.482 0.164,0.128 0.382,0.231 0.661,0.313 0.276,0.08 0.659,0.18 1.145,0.299 0.578,0.142 1.049,0.307 1.415,0.504 0.367,0.195 0.642,0.426 0.831,0.693 0.191,0.267 0.284,0.571 0.284,0.914 z"
   id="path39" />
			<path
   style="clip-rule:evenodd;fill-rule:evenodd"
   d="m 327.355,770.936 v 5.382 c 0,0.372 -0.088,0.653 -0.265,0.845 -0.176,0.192 -0.402,0.285 -0.674,0.285 -0.273,0 -0.496,-0.095 -0.665,-0.292 -0.171,-0.195 -0.254,-0.477 -0.254,-0.838 v -5.325 c 0,-0.366 0.083,-0.647 0.254,-0.83 0.17,-0.188 0.392,-0.28 0.665,-0.28 0.272,0 0.498,0.093 0.674,0.28 0.177,0.183 0.265,0.442 0.265,0.773 z m -0.919,-1.919 c -0.26,0 -0.481,-0.083 -0.664,-0.238 -0.185,-0.159 -0.276,-0.385 -0.276,-0.676 0,-0.264 0.094,-0.482 0.283,-0.651 0.188,-0.173 0.406,-0.256 0.658,-0.256 0.239,0 0.454,0.075 0.64,0.23 0.186,0.158 0.279,0.383 0.279,0.678 0,0.286 -0.091,0.51 -0.271,0.674 -0.183,0.155 -0.4,0.239 -0.649,0.239 z"
   id="path40" />
			<path
   style="clip-rule:evenodd;fill-rule:evenodd"
   d="m 332.521,775.894 c 0.303,-0.003 0.59,-0.086 0.858,-0.247 0.275,-0.17 0.5,-0.417 0.671,-0.752 0.175,-0.334 0.26,-0.738 0.26,-1.215 0,-0.762 -0.167,-1.352 -0.502,-1.773 -0.327,-0.417 -0.757,-0.626 -1.288,-0.634 v -1.331 c 0.286,0.049 0.547,0.134 0.781,0.255 0.386,0.202 0.744,0.521 1.079,0.951 v -0.252 c 0,-0.32 0.078,-0.571 0.238,-0.747 0.158,-0.18 0.362,-0.267 0.611,-0.267 0.36,0 0.598,0.119 0.717,0.352 0.118,0.231 0.177,0.567 0.177,1.012 v 5.406 c 0,0.616 -0.064,1.149 -0.198,1.595 -0.13,0.447 -0.341,0.813 -0.633,1.105 -0.29,0.288 -0.671,0.508 -1.142,0.648 -0.443,0.13 -0.986,0.201 -1.629,0.209 v -1.296 c 0.408,-0.013 0.73,-0.078 0.968,-0.199 0.267,-0.132 0.452,-0.32 0.56,-0.562 0.107,-0.243 0.166,-0.501 0.186,-0.772 0.018,-0.275 0.034,-0.718 0.044,-1.326 -0.289,0.397 -0.619,0.703 -0.996,0.911 -0.227,0.127 -0.481,0.216 -0.762,0.266 z m -1.79,-2.288 c 0,0.752 0.164,1.324 0.495,1.71 0.33,0.384 0.755,0.578 1.278,0.578 h 0.017 v 1.336 c -0.181,0.032 -0.373,0.049 -0.576,0.049 -0.622,0 -1.167,-0.159 -1.634,-0.479 -0.466,-0.315 -0.823,-0.762 -1.072,-1.336 -0.251,-0.573 -0.376,-1.234 -0.376,-1.986 0,-0.555 0.077,-1.06 0.228,-1.509 0.153,-0.451 0.369,-0.831 0.65,-1.141 0.283,-0.31 0.608,-0.541 0.977,-0.699 0.367,-0.153 0.772,-0.233 1.213,-0.233 0.207,0 0.404,0.016 0.589,0.047 v 1.331 h -0.031 c -0.532,0 -0.959,0.2 -1.278,0.607 -0.32,0.403 -0.48,0.975 -0.48,1.725 z m 1.79,5.307 v 1.296 l -0.126,0.001 c -0.64,0 -1.215,-0.09 -1.719,-0.27 -0.504,-0.18 -0.893,-0.412 -1.167,-0.694 -0.271,-0.286 -0.407,-0.575 -0.407,-0.878 0,-0.228 0.077,-0.41 0.231,-0.552 0.154,-0.147 0.339,-0.218 0.558,-0.218 0.273,0 0.512,0.12 0.717,0.36 0.1,0.123 0.202,0.249 0.31,0.373 0.108,0.122 0.225,0.231 0.355,0.321 0.128,0.089 0.285,0.154 0.466,0.196 0.181,0.043 0.391,0.065 0.627,0.065 z"
   id="path41" />
			<path
   style="clip-rule:evenodd;fill-rule:evenodd"
   d="m 339.697,770.91 v 0.228 c 0.327,-0.435 0.685,-0.752 1.074,-0.951 0.387,-0.202 0.834,-0.304 1.339,-0.304 0.49,0 0.93,0.106 1.316,0.317 0.384,0.215 0.674,0.518 0.866,0.908 0.122,0.228 0.201,0.475 0.237,0.735 0.037,0.266 0.056,0.601 0.056,1.009 v 3.466 c 0,0.372 -0.085,0.653 -0.255,0.845 -0.171,0.192 -0.394,0.285 -0.665,0.285 -0.278,0 -0.502,-0.095 -0.675,-0.292 -0.172,-0.195 -0.259,-0.477 -0.259,-0.838 v -3.103 c 0,-0.611 -0.085,-1.084 -0.255,-1.409 -0.17,-0.324 -0.511,-0.487 -1.021,-0.487 -0.332,0 -0.634,0.102 -0.906,0.297 -0.273,0.194 -0.473,0.468 -0.6,0.814 -0.09,0.281 -0.137,0.8 -0.137,1.556 v 2.333 c 0,0.375 -0.088,0.661 -0.262,0.849 -0.175,0.188 -0.402,0.281 -0.679,0.281 -0.267,0 -0.488,-0.095 -0.661,-0.292 -0.173,-0.195 -0.258,-0.477 -0.258,-0.838 v -5.382 c 0,-0.354 0.077,-0.618 0.232,-0.793 0.154,-0.174 0.365,-0.261 0.633,-0.261 0.163,0 0.312,0.036 0.443,0.114 0.131,0.078 0.238,0.192 0.317,0.349 0.08,0.154 0.12,0.342 0.12,0.564 z"
   id="path42" />
			<path
   style="clip-rule:evenodd;fill-rule:evenodd"
   d="m 349.682,773.065 h 1.688 c -0.046,-0.636 -0.218,-1.112 -0.516,-1.427 -0.296,-0.315 -0.688,-0.474 -1.171,-0.475 v -1.295 h 0.059 c 0.726,0 1.35,0.15 1.87,0.461 0.52,0.306 0.911,0.701 1.17,1.188 0.258,0.485 0.388,0.983 0.388,1.487 0,0.465 -0.134,0.773 -0.402,0.91 -0.268,0.139 -0.643,0.208 -1.132,0.208 h -1.953 v -1.057 z m 0,4.38 v -1.235 c 0.046,0.003 0.092,0.005 0.139,0.005 0.223,0 0.425,-0.024 0.61,-0.076 0.185,-0.05 0.361,-0.137 0.537,-0.248 0.172,-0.11 0.332,-0.23 0.476,-0.356 0.146,-0.128 0.335,-0.301 0.565,-0.517 0.097,-0.083 0.233,-0.127 0.409,-0.127 0.192,0 0.345,0.055 0.463,0.158 0.119,0.104 0.179,0.253 0.179,0.442 0,0.169 -0.065,0.364 -0.199,0.592 -0.131,0.225 -0.33,0.441 -0.597,0.648 -0.263,0.206 -0.598,0.375 -1.001,0.516 -0.401,0.134 -0.866,0.201 -1.388,0.201 -0.065,0 -0.129,-10e-4 -0.193,-0.003 z m -1.688,-4.38 h 1.688 v 1.058 h -1.688 c 0.004,0.423 0.088,0.793 0.254,1.116 0.167,0.325 0.387,0.567 0.661,0.729 0.237,0.143 0.494,0.223 0.772,0.242 v 1.235 c -1.102,-0.035 -1.966,-0.376 -2.596,-1.019 -0.662,-0.681 -0.995,-1.606 -0.995,-2.771 0,-0.552 0.085,-1.064 0.246,-1.534 0.163,-0.469 0.402,-0.874 0.717,-1.21 0.314,-0.334 0.698,-0.592 1.158,-0.773 0.444,-0.173 0.932,-0.262 1.47,-0.268 v 1.295 h -0.004 c -0.463,0 -0.845,0.158 -1.142,0.478 -0.296,0.32 -0.477,0.795 -0.541,1.422 z"
   id="path43" />
			<path
   style="clip-rule:evenodd;fill-rule:evenodd"
   d="m 357.956,776.012 c 0.325,-10e-4 0.62,-0.087 0.89,-0.256 0.268,-0.171 0.485,-0.431 0.647,-0.784 0.161,-0.354 0.242,-0.793 0.242,-1.317 0,-0.499 -0.081,-0.925 -0.242,-1.279 -0.163,-0.358 -0.38,-0.634 -0.655,-0.818 -0.268,-0.187 -0.563,-0.279 -0.882,-0.283 v -1.341 c 0.302,0.043 0.57,0.122 0.802,0.238 0.369,0.184 0.727,0.469 1.078,0.85 v -2.748 c 0,-0.382 0.076,-0.67 0.229,-0.866 0.152,-0.198 0.369,-0.292 0.652,-0.292 0.281,0 0.497,0.089 0.65,0.271 0.152,0.178 0.228,0.442 0.228,0.792 v 8.209 c 0,0.355 -0.081,0.621 -0.245,0.797 -0.164,0.178 -0.376,0.266 -0.633,0.266 -0.256,0 -0.466,-0.088 -0.632,-0.274 -0.166,-0.182 -0.249,-0.447 -0.249,-0.788 v -0.185 c -0.251,0.288 -0.496,0.519 -0.741,0.699 -0.243,0.18 -0.507,0.315 -0.789,0.409 -0.113,0.037 -0.23,0.067 -0.351,0.089 v -1.389 z m -1.78,-2.358 c 0,0.503 0.079,0.932 0.235,1.286 0.157,0.356 0.372,0.621 0.644,0.8 0.273,0.183 0.571,0.271 0.892,0.271 h 0.009 v 1.387 c -0.184,0.033 -0.377,0.05 -0.58,0.05 -0.445,0 -0.859,-0.093 -1.239,-0.281 -0.378,-0.188 -0.707,-0.457 -0.984,-0.809 -0.278,-0.347 -0.487,-0.761 -0.63,-1.234 -0.144,-0.472 -0.215,-0.983 -0.215,-1.534 0,-1.162 0.282,-2.069 0.853,-2.72 0.569,-0.649 1.316,-0.975 2.244,-0.975 0.195,0 0.38,0.013 0.553,0.037 v 1.341 h -0.023 c -0.339,0 -0.644,0.095 -0.912,0.287 -0.269,0.193 -0.476,0.474 -0.625,0.835 -0.15,0.359 -0.222,0.782 -0.222,1.259 z"
   id="path44" />
			<path
   style="clip-rule:evenodd;fill-rule:evenodd"
   d="m 370.54,776.011 0.061,10e-4 c 0.468,0 0.872,-0.205 1.21,-0.611 0.34,-0.407 0.507,-0.989 0.507,-1.746 0,-0.495 -0.069,-0.914 -0.21,-1.273 -0.141,-0.352 -0.342,-0.628 -0.601,-0.821 -0.257,-0.192 -0.561,-0.287 -0.907,-0.287 l -0.061,10e-4 v -1.34 c 0.173,-0.026 0.357,-0.039 0.553,-0.039 0.618,0 1.159,0.148 1.625,0.439 0.466,0.292 0.828,0.716 1.083,1.277 0.258,0.552 0.386,1.215 0.386,1.977 0,0.567 -0.071,1.082 -0.215,1.552 -0.143,0.469 -0.352,0.879 -0.624,1.223 -0.272,0.346 -0.603,0.615 -0.992,0.803 -0.388,0.188 -0.816,0.281 -1.284,0.281 -0.185,0 -0.362,-0.014 -0.533,-0.042 v -1.395 z m -1.779,-2.305 c 0,0.741 0.169,1.312 0.507,1.708 0.327,0.383 0.75,0.583 1.272,0.597 v 1.396 c -0.094,-0.015 -0.186,-0.034 -0.276,-0.059 -0.251,-0.068 -0.467,-0.159 -0.644,-0.272 -0.177,-0.109 -0.328,-0.224 -0.456,-0.344 -0.123,-0.117 -0.288,-0.295 -0.491,-0.531 v 0.185 c 0,0.351 -0.083,0.615 -0.254,0.797 -0.167,0.178 -0.38,0.266 -0.64,0.266 -0.263,0 -0.474,-0.088 -0.631,-0.266 -0.157,-0.182 -0.236,-0.446 -0.236,-0.797 l 0.001,-8.13 c 0,-0.372 0.077,-0.658 0.228,-0.852 0.154,-0.196 0.364,-0.29 0.638,-0.29 0.287,0 0.506,0.091 0.662,0.277 0.154,0.184 0.232,0.445 0.232,0.785 v 2.844 c 0.349,-0.365 0.706,-0.643 1.069,-0.834 0.232,-0.124 0.497,-0.208 0.798,-0.252 v 1.34 c -0.329,0.011 -0.624,0.106 -0.885,0.286 -0.277,0.193 -0.498,0.474 -0.656,0.841 -0.16,0.368 -0.238,0.8 -0.238,1.305 z"
   id="path45" />
			<path
   style="clip-rule:evenodd;fill-rule:evenodd"
   d="m 377.215,777.682 0.171,-0.416 -2.292,-5.768 c -0.14,-0.334 -0.211,-0.575 -0.211,-0.721 0,-0.158 0.042,-0.312 0.125,-0.447 0.081,-0.137 0.192,-0.244 0.336,-0.325 0.142,-0.082 0.292,-0.122 0.447,-0.122 0.269,0 0.47,0.084 0.606,0.254 0.136,0.171 0.259,0.415 0.362,0.733 l 1.576,4.582 1.491,-4.262 c 0.119,-0.347 0.228,-0.614 0.321,-0.811 0.095,-0.195 0.198,-0.327 0.305,-0.394 0.105,-0.069 0.256,-0.103 0.452,-0.103 0.141,0 0.276,0.036 0.405,0.114 0.131,0.072 0.229,0.174 0.299,0.301 0.071,0.127 0.107,0.262 0.107,0.402 -0.017,0.082 -0.048,0.207 -0.087,0.365 -0.042,0.162 -0.092,0.326 -0.152,0.487 l -2.427,6.353 c -0.209,0.563 -0.413,0.997 -0.614,1.314 -0.198,0.32 -0.462,0.564 -0.793,0.734 -0.331,0.17 -0.774,0.256 -1.332,0.256 -0.545,0 -0.955,-0.061 -1.228,-0.177 -0.272,-0.117 -0.409,-0.333 -0.409,-0.647 0,-0.215 0.064,-0.378 0.194,-0.496 0.13,-0.119 0.321,-0.174 0.578,-0.174 0.098,0 0.197,0.014 0.293,0.042 0.118,0.026 0.22,0.039 0.307,0.039 0.214,0 0.381,-0.031 0.503,-0.096 0.124,-0.06 0.234,-0.173 0.331,-0.329 0.096,-0.153 0.209,-0.385 0.336,-0.688 z"
   id="path46" />
		</g>
		<g
   id="g62">
			<path
   style="clip-rule:evenodd;fill-rule:evenodd"
   d="m 419.08,767.525 h 0.555 v -0.698 c 0,-0.727 0.093,-1.304 0.279,-1.729 0.179,-0.43 0.493,-0.742 0.934,-0.938 0.44,-0.197 1.041,-0.294 1.811,-0.294 1.351,0 2.032,0.331 2.032,0.995 0,0.213 -0.074,0.397 -0.216,0.554 -0.141,0.152 -0.307,0.231 -0.503,0.231 -0.09,0 -0.247,-0.017 -0.468,-0.054 -0.22,-0.033 -0.405,-0.05 -0.561,-0.05 -0.421,0 -0.689,0.123 -0.807,0.368 -0.12,0.248 -0.181,0.601 -0.181,1.058 v 0.556 h 0.57 c 0.887,0 1.329,0.268 1.329,0.8 0,0.378 -0.118,0.621 -0.353,0.722 -0.237,0.102 -0.56,0.159 -0.977,0.159 h -0.57 v 6.147 c 0,0.458 -0.112,0.809 -0.326,1.053 -0.218,0.241 -0.501,0.357 -0.85,0.357 -0.326,0 -0.602,-0.116 -0.819,-0.357 -0.218,-0.244 -0.327,-0.595 -0.327,-1.053 v -6.147 h -0.639 c -0.346,0 -0.609,-0.082 -0.8,-0.242 -0.186,-0.154 -0.282,-0.355 -0.282,-0.604 0.003,-0.556 0.395,-0.834 1.169,-0.834 z"
   id="path47" />
			<path
   style="clip-rule:evenodd;fill-rule:evenodd"
   d="m 427.378,773.411 v 1.942 c 0,0.468 -0.109,0.825 -0.331,1.06 -0.222,0.234 -0.5,0.35 -0.845,0.35 -0.329,0 -0.607,-0.116 -0.822,-0.355 -0.216,-0.239 -0.325,-0.59 -0.325,-1.055 v -6.465 c 0,-1.048 0.376,-1.566 1.13,-1.566 0.386,0 0.665,0.122 0.836,0.364 0.173,0.241 0.264,0.604 0.281,1.08 0.278,-0.476 0.563,-0.839 0.854,-1.08 0.293,-0.242 0.683,-0.364 1.171,-0.364 0.486,0 0.961,0.122 1.42,0.364 0.462,0.241 0.688,0.567 0.688,0.967 0,0.289 -0.095,0.52 -0.293,0.705 -0.197,0.184 -0.403,0.275 -0.636,0.275 -0.083,0 -0.288,-0.052 -0.614,-0.153 -0.326,-0.109 -0.613,-0.161 -0.866,-0.161 -0.338,0 -0.617,0.092 -0.831,0.273 -0.216,0.175 -0.384,0.44 -0.504,0.792 -0.117,0.352 -0.199,0.771 -0.246,1.257 -0.046,0.483 -0.067,1.075 -0.067,1.77 z"
   id="path48" />
			<path
   style="clip-rule:evenodd;fill-rule:evenodd"
   d="m 436.315,771.294 h 2.106 c -0.061,-0.793 -0.271,-1.388 -0.642,-1.78 -0.371,-0.394 -0.86,-0.591 -1.465,-0.592 v -1.616 h 0.074 c 0.906,0 1.682,0.188 2.33,0.575 0.651,0.381 1.139,0.875 1.463,1.482 0.321,0.605 0.485,1.227 0.485,1.855 0,0.581 -0.167,0.964 -0.503,1.137 -0.334,0.173 -0.803,0.258 -1.413,0.258 h -2.437 v -1.319 z m 0,5.466 v -1.542 c 0.058,0.004 0.116,0.006 0.175,0.006 0.278,0 0.531,-0.03 0.762,-0.095 0.227,-0.063 0.454,-0.17 0.665,-0.31 0.218,-0.138 0.417,-0.287 0.6,-0.445 0.18,-0.158 0.418,-0.374 0.702,-0.644 0.121,-0.104 0.295,-0.157 0.514,-0.157 0.236,0 0.43,0.067 0.577,0.197 0.146,0.13 0.22,0.316 0.22,0.552 0,0.211 -0.079,0.454 -0.245,0.738 -0.167,0.28 -0.413,0.551 -0.74,0.809 -0.334,0.258 -0.752,0.469 -1.255,0.645 -0.503,0.167 -1.078,0.251 -1.732,0.251 -0.081,-10e-4 -0.163,-0.002 -0.243,-0.005 z m -2.105,-5.466 h 2.105 v 1.319 h -2.105 c 0.009,0.528 0.112,0.991 0.318,1.393 0.207,0.406 0.478,0.708 0.829,0.909 0.292,0.179 0.612,0.277 0.958,0.302 v 1.542 c -1.377,-0.044 -2.457,-0.469 -3.235,-1.272 -0.829,-0.85 -1.245,-2.003 -1.245,-3.459 0,-0.688 0.103,-1.326 0.309,-1.913 0.203,-0.585 0.501,-1.092 0.891,-1.511 0.391,-0.417 0.875,-0.738 1.45,-0.965 0.549,-0.216 1.16,-0.326 1.831,-0.334 v 1.616 h -0.004 c -0.578,0 -1.055,0.196 -1.429,0.596 -0.369,0.402 -0.594,0.994 -0.673,1.777 z"
   id="path49" />
			<path
   style="clip-rule:evenodd;fill-rule:evenodd"
   d="m 446.669,771.294 h 2.104 c -0.059,-0.793 -0.271,-1.388 -0.639,-1.78 -0.373,-0.393 -0.858,-0.591 -1.466,-0.592 v -1.616 h 0.07 c 0.911,0 1.689,0.188 2.338,0.575 0.647,0.381 1.138,0.875 1.461,1.482 0.323,0.605 0.483,1.227 0.483,1.855 0,0.581 -0.17,0.964 -0.503,1.137 -0.332,0.173 -0.801,0.258 -1.411,0.258 h -2.439 v -1.319 z m 0,5.466 v -1.542 c 0.058,0.004 0.115,0.006 0.175,0.006 0.278,0 0.529,-0.03 0.759,-0.095 0.233,-0.063 0.456,-0.17 0.668,-0.31 0.218,-0.138 0.417,-0.287 0.599,-0.445 0.183,-0.158 0.42,-0.374 0.708,-0.644 0.119,-0.104 0.283,-0.157 0.508,-0.157 0.24,0 0.434,0.067 0.58,0.197 0.145,0.13 0.22,0.316 0.22,0.552 0,0.211 -0.081,0.454 -0.243,0.738 -0.167,0.28 -0.417,0.551 -0.749,0.809 -0.331,0.258 -0.747,0.469 -1.248,0.645 -0.506,0.167 -1.081,0.251 -1.732,0.251 -0.084,-10e-4 -0.165,-0.002 -0.245,-0.005 z m -2.105,-5.466 h 2.104 v 1.319 h -2.104 c 0.006,0.528 0.113,0.991 0.318,1.393 0.207,0.406 0.482,0.708 0.825,0.909 0.296,0.179 0.615,0.277 0.961,0.302 v 1.542 c -1.374,-0.044 -2.453,-0.47 -3.236,-1.272 -0.829,-0.85 -1.241,-2.003 -1.241,-3.459 0,-0.688 0.104,-1.326 0.301,-1.913 0.209,-0.585 0.506,-1.092 0.897,-1.511 0.388,-0.417 0.872,-0.738 1.448,-0.965 0.554,-0.216 1.165,-0.326 1.831,-0.334 v 1.616 h -0.005 c -0.579,0 -1.053,0.196 -1.424,0.596 -0.369,0.402 -0.599,0.994 -0.675,1.777 z"
   id="path50" />
			<path
   style="clip-rule:evenodd;fill-rule:evenodd"
   d="m 459.44,772.001 c 0,-0.614 -0.089,-1.139 -0.278,-1.578 -0.188,-0.44 -0.444,-0.781 -0.777,-1.012 -0.33,-0.238 -0.698,-0.352 -1.101,-0.352 h -0.063 v -1.668 c 0.202,-0.034 0.413,-0.052 0.632,-0.052 0.715,0 1.371,0.185 1.975,0.552 0.603,0.371 1.077,0.908 1.427,1.617 0.346,0.706 0.521,1.545 0.521,2.521 0,0.713 -0.102,1.367 -0.301,1.968 -0.202,0.596 -0.477,1.102 -0.829,1.505 -0.353,0.403 -0.766,0.721 -1.244,0.938 -0.48,0.218 -0.998,0.324 -1.548,0.324 -0.223,0 -0.433,-0.015 -0.632,-0.045 v -1.748 l 0.063,10e-4 c 0.388,0 0.743,-0.112 1.071,-0.34 0.329,-0.224 0.593,-0.555 0.79,-1.006 0.195,-0.448 0.294,-0.99 0.294,-1.625 z m -2.219,-2.942 c -0.611,0.017 -1.133,0.266 -1.557,0.756 -0.441,0.504 -0.663,1.247 -0.663,2.23 0,0.922 0.22,1.639 0.659,2.153 0.419,0.5 0.94,0.756 1.561,0.773 v 1.748 c -0.393,-0.059 -0.74,-0.178 -1.038,-0.354 -0.453,-0.266 -0.882,-0.653 -1.291,-1.174 v 3.488 c 0,1.022 -0.374,1.531 -1.111,1.531 -0.439,0 -0.727,-0.132 -0.871,-0.396 -0.142,-0.262 -0.21,-0.649 -0.21,-1.153 v -10.022 c 0,-0.442 0.098,-0.772 0.286,-0.99 0.194,-0.216 0.458,-0.325 0.795,-0.325 0.327,0 0.595,0.109 0.802,0.334 0.207,0.225 0.31,0.548 0.31,0.965 v 0.281 c 0.441,-0.537 0.893,-0.935 1.364,-1.187 0.296,-0.158 0.618,-0.268 0.965,-0.325 v 1.667 z"
   id="path51" />
			<path
   style="clip-rule:evenodd;fill-rule:evenodd"
   d="m 465.962,768.638 v 6.716 c 0,0.465 -0.113,0.815 -0.333,1.055 -0.221,0.239 -0.499,0.355 -0.843,0.355 -0.34,0 -0.613,-0.119 -0.829,-0.364 -0.213,-0.244 -0.317,-0.595 -0.317,-1.046 v -6.644 c 0,-0.458 0.104,-0.809 0.317,-1.036 0.216,-0.234 0.489,-0.351 0.829,-0.351 0.344,0 0.622,0.116 0.843,0.351 0.22,0.226 0.333,0.551 0.333,0.964 z m -1.146,-2.396 c -0.327,0 -0.608,-0.104 -0.834,-0.298 -0.227,-0.199 -0.343,-0.48 -0.343,-0.844 0,-0.328 0.118,-0.602 0.353,-0.813 0.233,-0.215 0.509,-0.32 0.824,-0.32 0.296,0 0.565,0.096 0.798,0.287 0.231,0.197 0.348,0.477 0.348,0.846 0,0.357 -0.114,0.637 -0.341,0.841 -0.226,0.196 -0.497,0.301 -0.805,0.301 z"
   id="path52" />
			<path
   style="clip-rule:evenodd;fill-rule:evenodd"
   d="m 474.147,775.7 -2.054,-3.368 -1.261,1.193 v 1.846 c 0,0.447 -0.112,0.791 -0.346,1.035 -0.241,0.241 -0.512,0.357 -0.813,0.357 -0.36,0 -0.642,-0.116 -0.845,-0.355 -0.206,-0.239 -0.307,-0.59 -0.307,-1.055 v -9.903 c 0,-0.518 0.094,-0.911 0.294,-1.179 0.203,-0.271 0.485,-0.404 0.857,-0.404 0.355,0 0.637,0.117 0.849,0.364 0.208,0.246 0.31,0.604 0.31,1.082 v 5.634 l 2.615,-2.743 c 0.325,-0.338 0.569,-0.571 0.736,-0.697 0.174,-0.124 0.381,-0.185 0.623,-0.185 0.292,0 0.53,0.089 0.728,0.276 0.188,0.185 0.288,0.414 0.288,0.692 0,0.339 -0.315,0.796 -0.946,1.363 l -1.231,1.128 2.379,3.746 c 0.181,0.277 0.306,0.489 0.379,0.632 0.079,0.144 0.114,0.284 0.114,0.411 0,0.373 -0.098,0.661 -0.303,0.876 -0.2,0.21 -0.469,0.316 -0.792,0.316 -0.285,0 -0.505,-0.074 -0.657,-0.227 -0.149,-0.152 -0.357,-0.433 -0.617,-0.835 z"
   id="path53" />
			<path
   style="clip-rule:evenodd;fill-rule:evenodd"
   d="m 479.889,776.764 c -0.351,0 -0.653,-0.11 -0.907,-0.341 -0.256,-0.225 -0.389,-0.542 -0.389,-0.955 0,-0.342 0.125,-0.641 0.367,-0.891 0.247,-0.248 0.55,-0.371 0.904,-0.371 0.357,0 0.659,0.123 0.914,0.366 0.251,0.247 0.378,0.545 0.378,0.896 10e-4,0.407 -0.127,0.727 -0.378,0.954 -0.255,0.231 -0.549,0.342 -0.889,0.342 z"
   id="path54" />
			<path
   style="clip-rule:evenodd;fill-rule:evenodd"
   d="m 492.135,773.889 c 0,0.291 -0.09,0.599 -0.263,0.928 -0.173,0.331 -0.436,0.642 -0.788,0.942 -0.354,0.297 -0.803,0.535 -1.339,0.715 -0.541,0.184 -1.15,0.273 -1.824,0.273 -1.437,0 -2.554,-0.42 -3.36,-1.256 -0.804,-0.833 -1.21,-1.956 -1.21,-3.36 0,-0.959 0.186,-1.8 0.556,-2.532 0.365,-0.729 0.902,-1.295 1.602,-1.692 0.695,-0.402 1.529,-0.601 2.498,-0.601 0.6,0 1.15,0.086 1.654,0.262 0.505,0.178 0.927,0.399 1.277,0.684 0.348,0.274 0.615,0.571 0.801,0.886 0.185,0.317 0.274,0.61 0.274,0.881 0,0.28 -0.103,0.517 -0.313,0.708 -0.204,0.192 -0.456,0.287 -0.75,0.287 -0.194,0 -0.357,-0.049 -0.483,-0.148 -0.125,-0.098 -0.27,-0.257 -0.427,-0.481 -0.285,-0.429 -0.58,-0.754 -0.89,-0.97 -0.308,-0.216 -0.702,-0.32 -1.177,-0.32 -0.687,0 -1.239,0.265 -1.659,0.803 -0.418,0.536 -0.633,1.266 -0.633,2.197 0,0.437 0.053,0.84 0.164,1.206 0.106,0.363 0.263,0.674 0.469,0.936 0.198,0.254 0.451,0.452 0.738,0.583 0.289,0.136 0.61,0.203 0.953,0.203 0.461,0 0.863,-0.111 1.195,-0.324 0.334,-0.218 0.625,-0.542 0.882,-0.988 0.142,-0.262 0.297,-0.465 0.461,-0.611 0.162,-0.148 0.363,-0.221 0.6,-0.221 0.289,0 0.521,0.108 0.708,0.323 0.186,0.216 0.283,0.444 0.284,0.687 z"
   id="path55" />
			<path
   style="clip-rule:evenodd;fill-rule:evenodd"
   d="m 500.523,772.045 c 0,-0.949 -0.213,-1.685 -0.629,-2.213 -0.411,-0.524 -0.964,-0.789 -1.665,-0.793 v -1.717 c 0.702,0.002 1.332,0.117 1.901,0.337 0.571,0.227 1.063,0.549 1.471,0.971 0.411,0.423 0.72,0.921 0.93,1.5 0.217,0.579 0.32,1.216 0.32,1.915 0,0.689 -0.104,1.327 -0.321,1.909 -0.218,0.588 -0.531,1.089 -0.938,1.507 -0.408,0.42 -0.893,0.744 -1.461,0.972 -0.565,0.221 -1.199,0.33 -1.901,0.331 v -1.728 c 0.701,-0.005 1.254,-0.267 1.665,-0.795 0.415,-0.531 0.628,-1.264 0.628,-2.196 z m -2.294,-3.006 -0.017,-10e-4 c -0.451,0 -0.852,0.118 -1.198,0.352 -0.342,0.239 -0.611,0.585 -0.802,1.042 -0.184,0.462 -0.278,1 -0.278,1.612 0,0.607 0.092,1.136 0.278,1.59 0.184,0.453 0.447,0.799 0.788,1.041 0.345,0.24 0.749,0.359 1.212,0.359 h 0.017 v 1.728 h -0.017 c -0.698,0 -1.333,-0.11 -1.897,-0.341 -0.559,-0.225 -1.044,-0.548 -1.46,-0.972 -0.408,-0.424 -0.722,-0.923 -0.929,-1.497 -0.217,-0.576 -0.324,-1.213 -0.324,-1.909 0,-0.705 0.107,-1.348 0.329,-1.935 0.211,-0.582 0.522,-1.082 0.92,-1.497 0.404,-0.412 0.893,-0.732 1.464,-0.957 0.576,-0.225 1.206,-0.334 1.897,-0.334 h 0.017 z"
   id="path56" />
			<path
   style="clip-rule:evenodd;fill-rule:evenodd"
   d="m 512.408,772.214 v 3.086 c 0,0.488 -0.111,0.855 -0.333,1.1 -0.219,0.245 -0.513,0.364 -0.878,0.364 -0.35,0 -0.636,-0.119 -0.854,-0.364 -0.219,-0.244 -0.329,-0.611 -0.329,-1.1 v -3.7 c 0,-0.587 -0.021,-1.032 -0.059,-1.359 -0.04,-0.325 -0.147,-0.59 -0.324,-0.796 -0.174,-0.209 -0.453,-0.308 -0.833,-0.308 -0.759,0 -1.259,0.258 -1.498,0.778 -0.241,0.523 -0.361,1.271 -0.361,2.247 v 3.138 c 0,0.484 -0.113,0.846 -0.334,1.094 -0.213,0.247 -0.503,0.37 -0.86,0.37 -0.35,0 -0.637,-0.123 -0.864,-0.37 -0.225,-0.248 -0.336,-0.609 -0.336,-1.094 v -6.647 c 0,-0.434 0.102,-0.767 0.302,-0.994 0.203,-0.221 0.469,-0.337 0.796,-0.337 0.317,0 0.585,0.105 0.795,0.317 0.215,0.213 0.319,0.509 0.319,0.882 v 0.221 c 0.405,-0.481 0.835,-0.836 1.294,-1.065 0.461,-0.223 0.971,-0.338 1.53,-0.338 0.587,0 1.088,0.115 1.505,0.348 0.421,0.232 0.771,0.585 1.04,1.056 0.392,-0.475 0.813,-0.831 1.26,-1.06 0.446,-0.228 0.944,-0.344 1.491,-0.344 0.633,0 1.181,0.126 1.639,0.371 0.46,0.257 0.801,0.61 1.027,1.072 0.203,0.424 0.301,1.084 0.301,1.985 v 4.532 c 0,0.488 -0.115,0.855 -0.335,1.1 -0.216,0.245 -0.507,0.364 -0.874,0.364 -0.348,0 -0.639,-0.123 -0.861,-0.37 -0.227,-0.248 -0.337,-0.609 -0.337,-1.094 v -3.904 c 0,-0.496 -0.02,-0.898 -0.062,-1.202 -0.047,-0.297 -0.158,-0.552 -0.347,-0.753 -0.185,-0.205 -0.472,-0.304 -0.852,-0.304 -0.307,0 -0.594,0.09 -0.87,0.271 -0.272,0.179 -0.489,0.425 -0.645,0.731 -0.169,0.39 -0.253,1.081 -0.253,2.076 z"
   id="path57" />
			<path
   style="clip-rule:evenodd;fill-rule:evenodd"
   d="m 400.779,761.334 c -0.047,-0.151 -0.097,-0.298 -0.145,-0.446 0.778,-0.072 1.304,-1.008 0.922,-1.7 -0.185,-0.415 -0.611,-0.637 -1.04,-0.646 h -0.05 c -0.361,0.006 -0.717,0.164 -0.926,0.485 -0.497,0.631 -0.11,1.632 0.652,1.838 0.045,0.156 0.091,0.317 0.14,0.482 -1.17,0.076 -2.363,0.338 -3.345,1.006 0.101,0.277 0.203,0.565 0.302,0.853 1.98,-0.869 4.2,-0.682 6.288,-0.473 0.068,-0.275 0.138,-0.552 0.209,-0.827 -0.943,-0.426 -1.979,-0.581 -3.007,-0.572 z"
   id="path58" />
			<path
   style="clip-rule:evenodd;fill-rule:evenodd"
   d="m 412.552,764.527 c -0.312,0.161 -0.373,0.538 -0.353,0.853 -0.351,0.34 -0.185,0.85 -0.222,1.274 -0.079,0.237 -0.364,0.265 -0.563,0.353 -0.272,-0.414 -0.563,-0.815 -0.931,-1.156 l 0.004,-0.02 c -0.4,-0.374 -0.83,-0.715 -1.287,-1.011 -0.364,0.393 -0.749,0.777 -1.1,1.186 0.695,0.767 1.34,1.589 1.909,2.454 0.393,0.661 0.708,1.361 0.979,2.079 0.589,-0.301 1.17,-0.615 1.761,-0.928 -0.312,-0.716 -0.664,-1.418 -1.044,-2.107 0.262,-0.14 0.61,-0.274 0.651,-0.615 0.03,-0.377 -0.055,-0.783 0.171,-1.113 0.455,0.298 1.147,-0.036 1.153,-0.591 0.062,-0.57 -0.658,-0.979 -1.128,-0.658 z"
   id="path59" />
			<path
   style="clip-rule:evenodd;fill-rule:evenodd"
   d="m 407.936,769.289 c -0.14,0.957 -1.05,1.767 -2.026,1.708 v 3.835 c 1.794,-0.482 3.526,-1.189 5.129,-2.13 0,0 -0.338,-1.867 -1.668,-3.903 -0.767,-1.272 -1.598,-2.538 -2.726,-3.518 -0.233,-0.205 -0.479,-0.399 -0.735,-0.578 v 2.217 c 0.246,0.006 0.492,0.053 0.729,0.109 0.896,0.317 1.482,1.328 1.297,2.26 z m -2.026,1.708 -0.008,-10e-4 c -0.565,0.047 -1.11,-0.221 -1.495,-0.62 -0.275,-0.343 -0.504,-0.737 -0.541,-1.187 -0.134,-0.972 0.552,-1.976 1.503,-2.204 0.178,-0.052 0.359,-0.07 0.541,-0.066 v -2.217 c -1.176,-0.82 -2.578,-1.339 -4.019,-1.332 -1.776,-0.021 -3.57,0.203 -5.262,0.75 v 2.107 c 0.313,10e-4 0.626,0.045 0.928,0.129 0.342,0.087 0.656,0.245 0.949,0.443 0.604,0.426 1.059,1.058 1.26,1.772 0.282,0.918 0.102,1.945 -0.432,2.738 -0.386,0.56 -0.937,0.991 -1.57,1.236 -0.362,0.135 -0.749,0.201 -1.135,0.2 v 2.846 l 0.09,0.004 c 2.077,0.063 4.17,0.115 6.232,-0.177 0.997,-0.13 1.986,-0.326 2.959,-0.588 z m -9.281,-6.877 v 2.107 c -0.535,-0.002 -1.069,0.121 -1.541,0.377 -0.982,0.523 -1.674,1.566 -1.72,2.685 -0.065,0.897 0.291,1.788 0.89,2.448 0.599,0.661 1.485,1.01 2.372,1.01 v 2.846 c -2.076,-0.107 -4.122,-0.557 -6.135,-1.061 -0.368,-1.864 -0.378,-3.882 0.439,-5.635 0.848,-1.949 2.522,-3.459 4.45,-4.308 0.408,-0.177 0.823,-0.333 1.245,-0.469 z"
   id="path60" />
			<path
   style="clip-rule:evenodd;fill-rule:evenodd"
   d="m 390.959,765.958 c -0.83,0.5 -1.511,1.206 -2.08,1.984 -0.167,-0.31 -0.217,-0.677 -0.434,-0.953 -0.124,-0.165 -0.345,-0.098 -0.518,-0.101 -0.221,0.024 -0.434,-0.036 -0.642,-0.099 0.242,-0.342 0.179,-0.865 -0.194,-1.088 -0.396,-0.286 -1.011,-0.038 -1.116,0.435 -0.167,0.518 0.385,1.036 0.893,0.901 0.269,0.4 0.755,0.334 1.171,0.35 0.186,0.322 0.329,0.679 0.567,0.972 -0.445,0.876 -0.696,1.858 -0.715,2.843 0.571,0.237 1.14,0.482 1.715,0.72 0.028,-0.624 0.099,-1.238 0.194,-1.846 0.192,-1.334 0.963,-2.493 1.877,-3.448 -0.227,-0.238 -0.48,-0.445 -0.718,-0.67 z"
   id="path61" />
			<path
   style="clip-rule:evenodd;fill-rule:evenodd"
   d="m 404.308,776.003 c -2.104,0.46 -4.275,0.595 -6.427,0.501 -1.454,-0.074 -2.908,-0.21 -4.331,-0.523 -1.006,-0.204 -1.993,-0.496 -2.984,-0.78 0.159,1.266 0.67,2.477 1.401,3.521 0.862,1.212 2.014,2.325 3.45,2.774 1.05,0.281 2.291,0.639 4.336,0.648 h 0.207 l 0.212,-0.003 c 1.903,-0.033 3.773,-0.274 5.442,-0.985 1.076,-0.462 2.086,-1.094 2.954,-1.883 0.748,-0.707 1.336,-1.587 1.741,-2.532 0.392,-0.893 0.744,-2.5 0.706,-3.32 -2.059,1.17 -4.362,2.189 -6.707,2.582 z"
   id="path62" />
		</g>
	</g>
	<g
   id="g70">
		<path
   style="clip-rule:evenodd;fill:#213332;fill-rule:evenodd"
   d="m 395.402,435.97 c -16.519,0.383 -58.085,3.481 -69.1,32.125 -11.017,28.641 15.423,49.874 15.423,68.052 0,18.176 -47.371,43.71 -47.371,100.445 0,56.733 49.042,84.149 106.806,84.149 59.468,0 104.406,-30.398 104.406,-88.682 0,-55.298 -47.371,-69.953 -47.371,-92.537 0,-22.582 15.975,-38.557 15.975,-51.226 0,-12.668 -0.552,-18.728 -7.712,-18.728 -7.161,0 -10.676,16.12 -27.921,16.12 -17.245,0 -26.059,-24.382 -26.059,-39.806 0,-15.42 -9.896,-10.078 -17.076,-9.912 z"
   id="path63" />
		<polygon
   style="clip-rule:evenodd;fill:#213332;fill-rule:evenodd"
   points="415.163,477.748 408.995,136.249 387.902,136.249 381.241,477.748 "
   id="polygon63" />
		<path
   style="clip-rule:evenodd;fill:#213332;fill-rule:evenodd"
   d="m 387.398,154.182 -10.991,-17.457 c -4.754,-7.552 17.023,-76.467 27.751,-93.433 2.984,-4.72 8.392,-7.298 10.809,-1.379 l 7.563,18.517 c 2.051,5.023 -9.819,14.549 -5.173,33.405 l 7.328,29.743 c 1.339,5.434 -5.604,8.189 -9.268,15.086 -3.664,6.896 -3.664,10.776 -3.879,17.026 -0.218,6.25 -22.2,6.466 -24.14,-1.508 z"
   id="path64" />
		
			<rect
   x="394.04599"
   y="53.264999"
   transform="matrix(0.306,-0.952,0.952,0.306,220.2271,416.7045)"
   style="clip-rule:evenodd;fill:#213332;fill-rule:evenodd"
   width="3.76"
   height="8.0719995"
   id="rect64" />
		<path
   style="clip-rule:evenodd;fill:#213332;fill-rule:evenodd"
   d="m 391.733,61.331 c 1.842,-1.766 3.992,-4.912 3.224,-9.747 l -4.211,-1.353 c -1.303,0.252 -4.331,2.942 -3.363,9.629 z"
   id="path65" />
		
			<rect
   x="388.87601"
   y="67.142998"
   transform="matrix(0.306,-0.952,0.952,0.306,203.4362,421.4191)"
   style="clip-rule:evenodd;fill:#213332;fill-rule:evenodd"
   width="3.76"
   height="8.0719995"
   id="rect65" />
		<path
   style="clip-rule:evenodd;fill:#213332;fill-rule:evenodd"
   d="m 386.563,75.209 c 1.842,-1.766 3.991,-4.912 3.224,-9.747 l -4.21,-1.352 c -1.304,0.252 -4.331,2.942 -3.364,9.628 z"
   id="path66" />
		
			<rect
   x="384.34601"
   y="81.047997"
   transform="matrix(0.306,-0.952,0.952,0.306,187.0448,426.7518)"
   style="clip-rule:evenodd;fill:#213332;fill-rule:evenodd"
   width="3.76"
   height="8.0719995"
   id="rect66" />
		<path
   style="clip-rule:evenodd;fill:#213332;fill-rule:evenodd"
   d="m 382.034,89.114 c 1.842,-1.766 3.991,-4.912 3.224,-9.747 l -4.21,-1.353 c -1.304,0.252 -4.331,2.942 -3.364,9.628 z"
   id="path67" />
		
			<rect
   x="380.19501"
   y="95.212997"
   transform="matrix(0.306,-0.952,0.952,0.306,170.6894,432.6373)"
   style="clip-rule:evenodd;fill:#213332;fill-rule:evenodd"
   width="3.7609999"
   height="8.0719995"
   id="rect67" />
		<path
   style="clip-rule:evenodd;fill:#213332;fill-rule:evenodd"
   d="m 377.884,103.278 c 1.841,-1.765 3.991,-4.911 3.223,-9.746 l -4.211,-1.353 c -1.304,0.251 -4.33,2.942 -3.363,9.628 z"
   id="path68" />
		
			<rect
   x="376.716"
   y="109.018"
   transform="matrix(0.3059,-0.9521,0.9521,0.3059,155.136,438.9103)"
   style="clip-rule:evenodd;fill:#213332;fill-rule:evenodd"
   width="3.7609999"
   height="8.0719995"
   id="rect68" />
		<path
   style="clip-rule:evenodd;fill:#213332;fill-rule:evenodd"
   d="m 374.404,117.084 c 1.842,-1.765 3.991,-4.911 3.224,-9.746 l -4.211,-1.353 c -1.303,0.252 -4.33,2.942 -3.363,9.628 z"
   id="path69" />
		
			<rect
   x="374.61099"
   y="123.892"
   transform="matrix(0.3058,-0.9521,0.9521,0.3058,139.5472,447.2538)"
   style="clip-rule:evenodd;fill:#213332;fill-rule:evenodd"
   width="3.7609999"
   height="8.0719995"
   id="rect69" />
		<path
   style="clip-rule:evenodd;fill:#213332;fill-rule:evenodd"
   d="m 372.299,131.958 c 1.842,-1.766 3.991,-4.912 3.223,-9.747 l -4.21,-1.352 c -1.304,0.252 -4.331,2.943 -3.364,9.629 z"
   id="path70" />
	</g>
</g>
<rect
   style="fill:#ffffff;fill-opacity:1;stroke:#ffffff;stroke-width:8.85165;stroke-opacity:1"
   id="rect72"
   width="250.18199"
   height="36.711487"
   x="288.25317"
   y="757.34442" /></svg>
