<svg xmlns="http://www.w3.org/2000/svg" xml:space="preserve" width="210mm" height="297mm" viewBox="0 0 210 297">
  <path d="M95.046 234.09c-2.453-2.503-3.317-9.328-1.516-11.974.868-1.276 2.463-3.008 4.43-4.107 1.691-.945 3.747-1.344 4.82-1.457 3.733-.393 10.293 5.484 9.454 10.382-.284 1.658-1.145 4.545-2.545 6.36-3.246 4.211-10.889 4.626-14.643.795zm11.575-1.969c2.502-2.553 2.458-6.633-.102-9.52-2.647-2.984-5.46-2.9-8.786.263-1.736 1.65-2.071 3.07-2.04 4.508.027 1.324.29 2.664 1.808 4.212 2.95 3.01 6.493 3.218 9.12.537zm-23.178-13.904c-1.813-3.906-3.887-10.107-4.61-13.78-.723-3.671-1.723-6.676-2.223-6.676-.5 0-2.78.799-5.07 1.775-6.065 2.585-20.4 3.75-26.28 2.135-2.73-.75-6.595-3.101-8.589-5.225-3.216-3.424-3.625-4.734-3.625-11.607 0-7.136.4-8.29 5.081-14.637 2.795-3.79 7.065-8.82 9.49-11.18l4.407-4.292-5.893-6.358c-10.518-11.348-13.04-16.265-13.064-25.47-.02-7.684.189-8.266 4.177-11.666 6.616-5.64 18.946-6.307 33.568-1.817 6.006 1.845 7.046 1.536 7.046-2.091 0-3.782 4.638-16.128 8.016-21.336 5.485-8.457 14.582-11.867 22.972-8.612 4.764 1.848 9.9 10.018 13.909 22.128l3.769 11.383 4.825-1.765c2.654-.971 9.383-2.08 14.954-2.465 10.877-.75 10.1-1.373 7.673 4.665-.66 1.642-2.124 3.71-2.722 4.475-.574.734-.701 1.445-2.254 1.788-5.24 1.158-19.776 4.08-20.415 5.777-.368.98-.3 4.73.153 8.336.764 6.093 1.245 6.85 6.802 10.72 7.192 5.009 8.397 4.612 15.822-5.208 5.01-6.625 5.314-6.809 11.247-6.809 4.512 0 6.099.473 6.099 1.818 0 2.304-5.042 9.38-11.995 16.832l-5.397 5.786 6.547 7.489c6.425 7.348 10.533 13.657 9.517 14.617-.282.267-2.724.836-5.425 1.264-4.874.773-4.963.715-12.037-8.027l-7.126-8.805-6.556 4.674c-6.391 4.558-6.577 4.861-7.379 12.097-.452 4.083-.373 7.867.177 8.41.85.84 5.449 1.879 19.416 4.388 2.871.516 7.441 8.421 6.125 10.594-1.081 1.786-13.963.655-22.536-1.977-3.065-.942-5.642-1.591-5.726-1.444-.085.146-2.068 5.901-4.409 12.787-2.548 7.499-4.972 12.637-6.042 12.81-.983.159-3.002-1.665-4.486-4.053-2.69-4.329-2.69-4.36-.378-9.693 1.275-2.943 2.83-7.672 3.455-10.509l1.136-5.159-6.94-3.384-6.941-3.385-7.015 3.165c-3.858 1.741-7.008 3.62-7 4.174.023 1.649 3.3 11.927 5.415 16.975 1.885 4.5 1.852 4.873-.81 9.067-1.528 2.405-3.403 4.38-4.168 4.39-.765.01-2.875-3.182-4.688-7.089zm5.582-7.926c-1.489-3.532-3.03-9.201-3.424-12.6l-.717-6.177 6.957-3.14c3.827-1.727 8.345-3.14 10.041-3.14 2.948 0 11.604 3.826 15.058 6.656.9.737 2.558 1.475 3.683 1.638 1.125.164 4.256.941 6.957 1.728 6.966 2.028 23.074 5.06 23.667 4.454.274-.279-.052-1.512-.725-2.739-.82-1.494-4.496-2.949-11.128-4.405-9.983-2.191-28.388-10.145-28.388-12.268 0-.63 3.453-3.261 7.673-5.848 18.696-11.457 36.896-26.441 43.482-35.799l3.808-5.41-3.848.003c-3.155.003-4.808 1.198-9.18 6.637-2.931 3.649-7.627 8.107-10.435 9.908-2.807 1.8-5.839 4.33-6.736 5.62-.898 1.29-3.996 3.48-6.885 4.866-2.89 1.386-6.547 3.763-8.128 5.284-4.355 4.187-17.437 12.157-19.956 12.158-1.223 0-5.222 1.448-8.885 3.216-3.664 1.769-7.22 2.863-7.904 2.432-1.611-1.016-2.315-18.528-.703-18.528.675 0 1.917 11.832 1.917 13.612 0 1.78.415 3.045.921 2.812.507-.233 2.993-1.239 5.525-2.235 2.532-.996 4.604-2.252 4.604-2.791 0-.54-2.66-2.355-5.909-4.035-3.25-1.68-6.601-3.907-7.448-4.948-.938-1.154-1.627-6.298-1.764-13.186-.2-9.99.058-11.51 2.23-13.165 3.204-2.44 28.383-15.16 35.21-17.787 2.917-1.123 6.962-2.769 8.987-3.658 2.026-.89 7.652-2.352 12.502-3.25 7.16-1.328 9.06-2.176 10.102-4.51 1.17-2.619.984-2.874-2.066-2.856-1.842.01-6.665.885-10.716 1.944-4.051 1.06-9.822 2.463-12.823 3.12-3.001.657-5.507 1.988-6.155 2.347-1.437.795-13.154 5.46-20.616 8.91-2.723 1.26-4.51 2.698-5.217 3.244-.877.676-2.08 1.226-3.95 2.376a115.41 115.41 0 0 1-6.834 3.891c-2.196 1.157-2.841.222-1.836-1.05.708-.895 1.66-3.412 2.117-5.594.955-4.56 3.46-6.01 7.023-4.065 1.364.745 3.917.987 5.673.537 2.959-.757 2.671-1.058-3.917-4.1l-7.11-3.282.78-4.975c1.026-6.55 7.842-23.15 10.705-26.072 1.32-1.347 4.02-2.305 6.494-2.305 3.346 0 4.861.854 7.221 4.071 4.238 5.776 6.406 10.61 8.146 18.164.936 4.067 2.17 6.577 3.234 6.577 2.388 0 2.153-3.199-.925-12.597-2.882-8.796-8.39-17.966-11.533-19.196-4.626-1.811-11.445-.753-15.041 2.335-4.302 3.693-9.611 14.608-11.49 23.621-.74 3.555-1.877 6.809-2.525 7.231-.648.422-5.098-.282-9.89-1.566-28.568-7.653-41.308 3.916-27.25 24.743 2.49 3.687 6.674 8.685 9.301 11.106 2.627 2.422 4.775 5.132 4.775 6.024 0 .892-2.512 4.135-5.582 7.206-8.78 8.783-14.306 17.731-14.306 23.162 0 5.14 3.104 10.307 7.73 12.87 4.294 2.378 21.1 1.16 28.341-2.053 6.732-2.988 7.34-2.557 9.442 6.681.784 3.445 2.623 8.958 4.087 12.251 2.34 5.26 2.881 5.764 4.462 4.151 1.581-1.613 1.47-2.616-.907-8.257zm-43.702-16.532c-1.35-.781-2.86-2.032-3.357-2.78-1.606-2.422-.943-8.747 1.491-14.22 2.603-5.85 14.174-19.084 16.687-19.084.866 0 4.854 2.31 8.863 5.133l7.29 5.133.826 10.103c.454 5.558.39 10.517-.14 11.021-1.5 1.423-21.24 6.196-25.447 6.153-2.066-.018-4.862-.677-6.212-1.459zm20.061-4.692c4.957-1.313 9.153-2.572 9.326-2.797.509-.662-1.173-15.901-1.802-16.336a2214.51 2214.51 0 0 1-6.628-4.689l-6.053-4.292-6.455 7.247c-3.693 4.147-7.274 9.702-8.37 12.984-1.758 5.264-1.749 5.926.114 8.025 2.618 2.952 8.346 2.911 19.869-.142zm4.187-30.068c-3.385-2.881-3.502-5.264-.398-8.13 3.589-3.314 6.772-2.07 7.234 2.827.355 3.768-1.375 7.8-3.303 7.696-.424-.025-2.014-1.1-3.533-2.393zm4.232-4.324c.037-1.2-.988-3.017-2.156-2.725-1.582.396-2.795 2.416-1.698 3.358.867.745 2.265 3.804 3.186 3.547.705-.197.64-3.195.668-4.18zm-21.966-11.192c-9.31-9.348-12.767-17.982-10.07-25.151 1.823-4.85 12.967-5.02 30.995-.476l5.34 1.346-.445 10c-.39 8.742-.801 10.254-3.279 12.033-1.558 1.119-4.662 3.585-6.898 5.48-2.236 1.894-5.174 3.444-6.53 3.444-1.356 0-5.457-3.004-9.113-6.676zm19.716-4.598c1.878-1.433 2.555-3.63 2.85-9.246l.386-7.368-5.46-1.655c-7.451-2.26-17.667-3.459-20.805-2.443-7.369 2.386-4.821 12.002 6.05 22.838l6.533 6.51 3.991-3.378c2.195-1.859 5.1-4.225 6.455-5.258zm48.24 67.87c1.794-5.284 3.005-10.034 2.69-10.554-1.594-2.63-3.817-.253-5.269 5.632-.892 3.617-2.35 8.043-3.238 9.835-1.204 2.426-1.261 3.62-.227 4.677 1.928 1.967 2.345 1.305 6.044-9.59zm5.404-24.5c.403-1.64.552-4.443.33-6.23l-.402-3.248-5.21 3.41c-2.864 1.876-5.212 3.73-5.217 4.123-.01.73 7.258 4.7 8.869 4.844.493.043 1.227-1.26 1.63-2.9zm37.373-7.784c0-1.015-3.963-6.07-9.975-12.725-3.341-3.7-5.43-5.139-6.246-4.307-1.59 1.624 11.074 17.527 14.072 17.67 1.182.058 2.149-.23 2.149-.638zm-52.772-4.907c3.9-2.418 7.426-5.283 7.833-6.366.408-1.083.736-6.01.73-10.949l-.01-8.98-7.662-4.106c-4.215-2.259-8.39-4.09-9.28-4.071-.89.017-5.16 2.149-9.491 4.732l-7.874 4.698-.024 9.555c-.013 6.152.523 10.011 1.511 10.837 2.313 1.93 14.886 8.962 16.107 9.007.587.025 4.259-1.94 8.16-4.357zm16.85-17.385c.71-6.434 1.59-6.909 6.1-3.29 2.851 2.288 5.267 2.397 5.267.237 0-.487-2.762-2.731-6.138-4.986l-6.139-4.1v-7.394c0-4.066-.58-7.759-1.29-8.207-1.136-.716-16.248 4.871-18.652 6.896-.501.423 3.005 2.927 7.793 5.566l8.706 4.798-.427 10.46c-.416 10.197-.37 10.4 1.857 8.128 1.274-1.3 2.566-4.885 2.922-8.108zm5.366-.967c-1.146-1.17-1.395-3.134-3.048-1.48-2.833 2.834.198 7.368 2.84 5.937 1.44-.78 1.353-3.288.208-4.457zm-43.21-23.247c.282-.195-.43-1.42-1.483-1.42-.466 0-1.767-.145-2.213.155-.56.378-1.362 1.354-1.599 1.984-.673 1.79.713 2.819 2.608 1.337 1.197-.936 2.406-1.861 2.688-2.056zm19.746-9.8c3.039-1.213 5.936-2.568 6.438-3.012 1.52-1.34-3.427-17.281-6.991-22.53-4.284-6.307-6.479-7.108-10.062-3.673-2.679 2.567-10.256 20.266-10.256 23.955 0 1.8 12.109 8.556 14.119 7.878.675-.227 3.714-1.406 6.752-2.619zm48.44 80.28c-7.132-7.277-1.669-19.343 8.03-17.737 5.433.9 7.371 3.611 7.371 10.312 0 4.24-.65 5.828-3.235 7.903-4.29 3.444-8.484 3.28-12.167-.479zm11.652-2.481c.804-.989 1.286-3.653 1.07-5.922-.847-8.953-13.192-8.273-13.262.73-.047 5.721 8.724 9.455 12.192 5.192zm-12.055-71.285c-1.64-1.673-2.611-3.75-2.611-7.108 0-2.27.517-3.425 1.157-4.52.581-.993 1.199-1.975 2.833-2.992 4.475-2.784 9.075-2.825 11.303-.552.81.827 3.122 4.023 3.122 7.635 0 5.367-.499 6.925-2.728 8.518-3.833 2.74-10.112 2.044-13.076-.98zm10.974-.87c1.79-.978 2.375-2.641 2.375-6.756 0-3.162-1.44-4.17-2.618-5.011-1.238-.885-2.294-1.495-5.679-.367-5.325 1.775-6.559 5.503-3.433 10.37 2.088 3.252 5.464 3.888 9.355 1.763z" style="fill:#000;fill-opacity:1;stroke-width:4.68713"/>
</svg>
