<?xml version="1.0" standalone="no"?>
<!DOCTYPE svg PUBLIC "-//W3C//DTD SVG 20010904//EN"
 "http://www.w3.org/TR/2001/REC-SVG-20010904/DTD/svg10.dtd">
<svg version="1.0" xmlns="http://www.w3.org/2000/svg"
 width="137.000000pt" height="300.000000pt" viewBox="0 0 137.000000 300.000000"
 preserveAspectRatio="xMidYMid meet">
<metadata>
Created by potrace 1.10, written by Peter Selinger 2001-2011
</metadata>
<g transform="translate(0.000000,300.000000) scale(0.100000,-0.100000)"
fill="#000000" stroke="none">
<path d="M816 2985 c-3 -8 -12 -15 -19 -15 -19 0 -286 -110 -416 -171 -57 -27
-108 -49 -112 -49 -5 0 -9 10 -9 23 0 17 -2 19 -10 7 -5 -8 -24 -15 -42 -16
-39 -2 -148 -42 -148 -54 0 -5 -11 -20 -25 -34 -34 -35 -31 -53 12 -73 35 -17
38 -22 40 -63 2 -25 10 -112 20 -195 l17 -150 94 -97 c52 -54 97 -100 100
-102 8 -9 31 -179 32 -239 0 -56 1 -59 60 -122 33 -35 60 -69 60 -74 0 -25
-291 -210 -339 -216 -14 -1 -32 -3 -38 -4 -7 0 -13 -8 -13 -16 0 -8 -18 -26
-40 -40 -22 -14 -40 -28 -40 -31 0 -3 13 -23 28 -43 16 -20 51 -69 78 -110 42
-64 81 -102 119 -114 5 -2 -1 -16 -13 -32 -39 -49 -26 -128 26 -161 17 -10 47
-40 67 -66 20 -27 44 -48 54 -48 9 0 37 -17 60 -37 l43 -37 -6 -58 c-6 -58
-41 -131 -68 -141 -16 -6 19 -36 42 -37 20 0 140 121 140 142 0 16 19 28 44
28 16 0 40 -74 26 -78 -6 -2 -5 -12 2 -25 8 -14 14 -91 18 -210 5 -172 7 -190
24 -203 31 -22 73 -18 91 10 26 39 35 124 21 203 -10 58 -9 94 2 185 7 62 18
129 23 148 12 42 7 114 -11 152 -10 21 -10 43 0 110 14 95 23 118 49 118 25 0
30 55 15 158 -6 42 -9 79 -8 81 1 1 18 -8 36 -22 50 -37 92 -48 131 -35 43 14
52 24 75 85 19 50 19 54 2 115 -10 35 -25 81 -34 103 -10 26 -15 63 -13 104
l3 64 62 17 c33 9 76 28 95 43 18 14 44 27 58 29 23 4 22 5 -14 23 l-37 19 34
35 c40 42 67 94 90 170 9 30 16 56 16 58 0 2 -11 -4 -24 -12 -14 -9 -39 -15
-58 -13 -32 3 -33 5 -50 73 -9 39 -19 87 -22 107 l-7 37 -57 -21 c-66 -23
-182 -26 -268 -7 -66 15 -75 35 -50 111 11 35 16 83 15 157 -1 75 -3 95 -9 68
-7 -38 -20 -61 -20 -36 0 23 -21 91 -26 86 -3 -3 2 -32 10 -65 21 -79 22 -182
1 -182 -7 0 -18 6 -22 13 -9 16 -87 62 -120 72 -16 4 -23 2 -23 -7 0 -8 -10
-34 -21 -59 -12 -24 -24 -64 -27 -89 -3 -25 -10 -48 -16 -52 -21 -14 -64 -8
-120 18 -31 14 -61 22 -67 19 -6 -4 -23 4 -37 18 -15 13 -42 32 -60 41 -18 9
-32 24 -32 34 0 10 -12 56 -26 103 -44 142 -43 139 -14 189 21 37 32 46 59 48
26 3 30 6 21 17 -9 11 -1 18 37 35 100 46 265 110 355 138 115 37 417 103 480
105 27 1 48 5 48 8 0 13 -54 20 -79 10 -14 -6 -78 -20 -141 -31 -186 -34 -469
-124 -649 -206 -41 -19 -75 -34 -77 -34 -2 0 -4 9 -4 20 0 21 84 65 318 164
220 94 264 106 399 107 149 2 105 16 -53 18 -91 1 -113 -2 -118 -14z m-606
-256 c0 -16 -7 -19 -40 -19 -40 0 -52 -14 -30 -36 14 -14 -13 -37 -37 -32 -13
2 -18 13 -18 38 0 32 3 35 55 55 60 24 70 23 70 -6z m12 -47 c7 -26 -21 -90
-41 -97 -17 -5 -16 -11 7 -88 55 -184 58 -197 42 -207 -16 -10 -20 -8 52 -30
47 -14 92 -65 83 -94 -3 -12 -11 -47 -17 -80 -11 -52 -10 -59 5 -68 17 -9 24
-38 10 -38 -5 0 -55 50 -113 111 -103 110 -105 113 -117 178 -7 36 -16 121
-19 189 -4 67 -11 125 -16 128 -4 3 -8 12 -8 20 0 20 27 18 39 -3 9 -16 10
-15 11 8 0 14 9 34 20 44 25 22 25 32 3 38 -10 3 -2 5 18 6 28 1 38 -4 41 -17z
m546 -404 c4 -45 -15 -51 -48 -15 -20 21 -60 89 -60 102 0 4 24 -6 53 -22 47
-25 52 -32 55 -65z m-89 16 c14 -25 37 -52 53 -60 22 -11 28 -21 28 -47 0 -54
-10 -77 -34 -77 -39 1 -116 86 -116 129 0 24 29 101 39 101 3 0 17 -21 30 -46z
m-273 -118 c-3 -13 -9 -31 -12 -40 -4 -11 3 -17 27 -23 18 -5 34 -14 37 -21 5
-15 -22 -16 -49 -2 -16 9 -21 6 -34 -22 l-15 -33 5 52 c7 62 23 113 37 113 6
0 8 -11 4 -24z m388 -37 c-35 -39 -40 -7 -5 35 15 17 16 17 19 1 2 -9 -4 -25
-14 -36z m-204 2 c0 -11 -5 -23 -11 -26 -5 -4 -8 -19 -4 -33 4 -21 -4 -41 -35
-87 -52 -79 -51 -99 3 -43 23 24 53 51 67 60 23 15 24 17 8 30 -9 7 -20 25
-24 41 -5 23 -3 27 15 27 15 0 21 6 21 21 0 20 1 20 31 -5 17 -14 41 -29 55
-32 26 -7 33 -24 9 -24 -8 0 -26 5 -40 12 -37 17 -44 0 -11 -29 20 -17 36 -23
52 -19 19 5 24 2 24 -13 0 -22 -75 -47 -109 -36 -25 8 -27 0 -6 -21 16 -16 19
-72 7 -139 -10 -55 2 -170 19 -188 8 -7 21 -16 29 -19 11 -3 15 -20 15 -61 0
-32 -2 -57 -5 -57 -3 0 -33 23 -65 51 -33 28 -83 65 -110 83 -57 37 -128 117
-149 167 -7 19 -16 54 -20 78 -6 36 -4 42 9 38 18 -7 19 -3 4 24 -11 22 -14
18 86 127 32 34 62 62 68 62 10 0 5 -7 -56 -86 l-38 -49 5 -95 c4 -60 2 -90
-4 -80 -16 26 -19 6 -4 -26 18 -38 91 -110 101 -101 4 4 -15 28 -41 54 -29 28
-44 48 -37 52 7 5 8 33 3 90 -10 98 0 125 72 214 50 60 66 70 66 38z m300 4
c71 -19 161 -19 233 0 32 8 61 15 65 15 9 0 46 -169 39 -176 -2 -3 -29 5 -58
17 -115 46 -266 102 -301 112 -26 8 -38 17 -38 29 0 10 1 18 3 18 1 0 27 -7
57 -15z m100 -91 c234 -91 243 -93 298 -94 28 0 52 -4 52 -10 0 -21 -42 -114
-67 -146 -46 -61 -55 -61 -120 1 -32 30 -62 55 -68 55 -5 0 28 -37 74 -82 l84
-81 -28 -23 c-16 -12 -49 -28 -74 -34 -25 -7 -54 -14 -63 -17 -24 -6 -34 39
-19 88 10 32 9 44 -4 69 -11 22 -14 44 -10 74 6 41 5 44 -19 50 -48 12 -166
89 -166 108 0 23 -16 23 -29 1 -8 -14 -10 -7 -11 33 0 47 5 64 19 64 3 0 71
-26 151 -56z m-189 -47 c-8 -8 -16 -6 -29 6 -16 17 -16 19 8 37 l25 19 3 -26
c2 -14 -1 -30 -7 -36z m-19 -58 c-5 -43 -39 -50 -89 -19 -45 27 -41 38 11 33
27 -3 46 -1 51 6 11 19 30 6 27 -20z m89 -25 c44 -32 53 -35 72 -25 16 9 30 9
50 2 34 -13 34 -17 -5 -37 -18 -9 -55 -33 -83 -53 -49 -36 -89 -48 -100 -30
-3 5 1 6 9 3 27 -10 18 1 -35 41 -50 38 -51 38 -80 21 -33 -20 -35 -17 -14 25
13 25 20 28 43 23 15 -3 47 -19 71 -36 44 -30 44 -30 77 -12 l33 18 -47 30
c-47 30 -62 44 -62 59 0 15 21 6 71 -29z m-186 -26 c-10 -31 -25 -47 -25 -26
0 24 11 48 22 48 5 0 6 -10 3 -22z m345 -114 c18 -41 18 -48 5 -80 -10 -25
-12 -42 -5 -60 14 -37 13 -131 -1 -117 -6 6 -19 9 -28 6 -14 -4 -14 -3 -1 6
13 10 5 21 -47 71 -58 55 -63 63 -63 103 0 47 17 70 75 100 42 23 44 22 65
-29z m-358 -44 c-2 -16 -8 -27 -13 -24 -12 7 -7 54 6 54 7 0 10 -12 7 -30z
m-101 -156 c108 -72 107 -81 -5 -30 -120 55 -196 128 -196 187 0 20 9 14 66
-44 36 -37 97 -88 135 -113z m199 133 c0 -15 -5 -18 -22 -13 -13 3 -29 6 -35
6 -7 0 -13 6 -13 14 0 10 11 14 35 13 27 -1 35 -5 35 -20z m60 -1 c0 -8 -7
-17 -16 -20 -23 -9 -24 -8 -24 14 0 13 7 20 20 20 11 0 20 -6 20 -14z m48 -19
c4 -31 -12 -36 -28 -8 -15 29 -12 43 8 39 10 -2 18 -14 20 -31z m-132 -7 c9 0
13 -4 10 -8 -3 -5 -15 -8 -28 -6 -13 1 -27 3 -31 3 -5 1 -5 6 -2 12 4 6 14 8
22 5 8 -3 21 -6 29 -6z m41 -40 c-14 -11 -29 -29 -32 -40 -8 -26 -25 -16 -18
10 6 23 40 50 62 50 8 0 3 -8 -12 -20z m92 -26 c22 -29 36 -63 27 -71 -3 -3
-17 4 -32 16 -15 11 -35 21 -45 21 -30 0 -49 11 -49 30 0 38 70 41 99 4z m77
-40 c10 -41 -2 -38 -25 6 -21 40 -21 40 -1 30 11 -6 23 -22 26 -36z m-133 -29
c26 -20 47 -40 47 -46 0 -6 -21 -9 -52 -7 l-53 3 -3 43 c-2 23 0 42 5 42 4 0
29 -16 56 -35z m-208 -36 c96 -39 110 -49 67 -49 -45 0 -130 35 -164 67 -34
32 -37 49 -5 29 12 -8 58 -29 102 -47z m134 -19 c0 -26 -2 -31 -9 -20 -5 8 -9
35 -9 60 1 37 2 41 9 20 4 -14 8 -41 9 -60z m227 -7 c28 -30 54 -85 54 -114 0
-47 -60 -34 -95 21 -14 22 -25 46 -25 54 0 10 -6 13 -15 10 -8 -4 -15 -1 -15
5 0 6 4 11 9 11 5 0 13 9 16 20 9 28 41 25 71 -7z m-526 5 c0 -22 -17 -41 -29
-34 -8 5 -8 13 -1 27 12 21 30 26 30 7z m46 -4 c-3 -9 -6 -20 -6 -25 0 -5 -4
-9 -10 -9 -5 0 -10 11 -10 25 0 16 6 25 16 25 11 0 14 -5 10 -16z m54 -34 c0
-13 -7 -20 -19 -20 -25 0 -38 20 -20 31 23 15 39 10 39 -11z m38 -15 c-2 -41
-24 -48 -22 -7 1 38 3 42 14 42 6 0 10 -16 8 -35z m85 0 c1 -5 -15 -11 -35
-13 -27 -2 -38 1 -38 11 0 7 2 16 5 19 9 8 66 -6 68 -17z m190 6 c6 -6 -1 -16
-23 -30 -39 -23 -44 -22 -59 20 l-11 32 41 -6 c23 -3 46 -10 52 -16z m-439
-101 c38 -39 73 -70 78 -70 18 0 6 -27 -17 -40 -19 -10 -38 -11 -91 -2 -37 6
-71 17 -75 24 -10 16 -12 142 -2 151 17 17 43 2 107 -63z m50 51 c3 -4 16 -6
30 -4 27 6 40 -9 31 -36 -4 -13 -12 -17 -30 -13 -14 2 -25 9 -25 14 0 7 -5 6
-13 -1 -18 -15 -25 -6 -19 24 4 25 16 32 26 16z m421 -50 c-14 -23 -29 -41
-34 -41 -6 0 -19 13 -31 30 l-21 30 28 11 c49 20 78 26 81 18 2 -4 -8 -26 -23
-48z m-605 39 c0 -5 -7 -10 -15 -10 -8 0 -15 -4 -15 -10 0 -5 7 -7 15 -4 9 4
15 0 15 -9 0 -20 -51 -40 -84 -31 -31 7 -56 -9 -56 -38 0 -24 28 -35 49 -19
37 27 77 51 83 51 14 0 20 -50 9 -64 -6 -7 -21 -11 -34 -9 -12 2 -31 -3 -42
-11 -16 -12 -18 -18 -9 -33 6 -10 18 -19 26 -21 14 -3 24 5 54 41 12 14 84 12
84 -3 0 -15 -26 -28 -60 -32 -30 -2 -35 -7 -38 -30 -3 -22 2 -29 23 -34 30 -7
65 18 65 47 0 24 45 53 67 44 15 -6 9 -15 -37 -56 -30 -27 -50 -49 -44 -49 6
0 19 9 30 21 22 25 54 43 54 31 0 -5 -16 -27 -35 -50 -42 -48 -52 -47 -140 18
-76 56 -183 217 -131 197 13 -5 94 28 106 43 7 9 43 29 53 30 4 0 7 -4 7 -10z
m288 -22 c-5 -32 -28 -35 -28 -4 0 17 5 26 16 26 10 0 14 -7 12 -22z m82 1 c0
-10 -6 -19 -14 -19 -8 0 -22 -3 -32 -7 -13 -5 -16 -3 -11 10 3 9 2 17 -3 17
-6 0 -10 4 -10 8 0 4 16 8 35 9 28 1 35 -3 35 -18z m92 8 c13 -21 9 -25 -32
-29 -35 -3 -40 -1 -40 18 0 17 6 21 32 22 18 0 36 -5 40 -11z m-542 -83 c0 -8
-2 -14 -4 -14 -2 0 -11 -3 -20 -6 -11 -4 -16 0 -16 14 0 20 18 33 33 25 4 -2
7 -11 7 -19z m440 16 c0 -5 -16 -10 -35 -10 -19 0 -35 5 -35 10 0 6 16 10 35
10 19 0 35 -4 35 -10z m110 0 c0 -5 -11 -10 -24 -10 -14 0 -28 5 -31 10 -4 6
7 10 24 10 17 0 31 -4 31 -10z m196 -7 c-3 -10 -8 -30 -12 -45 -8 -35 -14 -35
-49 2 -31 32 -31 34 5 49 41 16 62 13 56 -6z m148 -1 c2 -4 1 -23 -4 -42 -4
-19 -8 -32 -9 -29 -1 4 -8 23 -16 43 -15 34 -14 36 4 36 11 0 22 -3 25 -8z
m-94 -63 c0 -52 -10 -61 -44 -36 -17 13 -17 15 3 56 12 23 26 39 31 36 6 -4
10 -28 10 -56z m-450 16 c0 -29 -4 -35 -21 -35 -16 0 -19 4 -14 18 4 9 10 25
12 35 9 30 23 19 23 -18z m130 5 c0 -16 -4 -30 -10 -30 -5 0 -10 14 -10 30 0
17 5 30 10 30 6 0 10 -13 10 -30z m70 6 c0 -16 -7 -26 -22 -30 -36 -9 -38 -8
-38 24 0 27 3 30 30 30 25 0 30 -4 30 -24z m48 -4 c2 -15 -2 -22 -12 -22 -11
0 -16 9 -16 26 0 31 23 28 28 -4z m58 3 c9 -14 38 -41 64 -60 38 -28 57 -35
94 -35 51 0 54 -14 6 -25 -18 -4 -42 0 -64 10 -35 17 -136 110 -136 126 0 18
20 8 36 -16z m194 -4 c15 -38 10 -75 -12 -79 -15 -3 -18 5 -18 52 0 62 11 72
30 27z m-414 3 c-3 -9 -6 -22 -6 -30 0 -9 -11 -14 -35 -14 -36 0 -42 10 -29
44 4 10 18 16 41 16 28 0 34 -3 29 -16z m-504 -39 c8 -19 8 -28 -2 -40 -17
-21 -25 -19 -39 11 -9 20 -9 30 0 40 17 20 28 17 41 -11z m118 -9 c0 -15 -24
-28 -34 -19 -13 14 -5 33 14 33 11 0 20 -6 20 -14z m-165 -36 c9 -16 11 -30 6
-30 -11 0 -31 32 -31 49 0 19 9 12 25 -19z m655 -15 c0 -45 0 -45 -35 -45 -26
0 -35 4 -36 18 -1 16 -2 16 -6 0 -7 -26 -25 -22 -21 5 3 22 6 24 58 26 17 0
30 6 30 11 0 6 -11 8 -25 4 -15 -4 -25 -2 -25 4 0 10 19 18 48 21 8 1 12 -14
12 -44z m-250 20 c0 -8 -9 -15 -20 -15 -20 0 -26 11 -13 23 12 13 33 7 33 -8z
m130 0 c0 -10 -11 -15 -35 -15 -33 0 -43 8 -28 23 13 14 63 7 63 -8z m-306
-11 c21 -8 20 -31 -1 -36 -25 -6 -43 1 -43 17 0 7 6 16 13 18 6 3 13 6 14 6 1
1 8 -2 17 -5z m484 -21 c-4 -36 -38 -45 -38 -10 0 27 7 37 27 37 10 0 13 -9
11 -27z m42 7 c0 -5 3 -15 6 -24 4 -12 0 -16 -15 -16 -17 0 -21 6 -21 30 0 22
4 28 15 24 8 -4 15 -10 15 -14z m-360 -25 c0 -21 -5 -25 -30 -25 -16 0 -30 4
-30 9 0 25 14 41 36 41 19 0 24 -5 24 -25z m50 0 c0 -16 -6 -25 -15 -25 -9 0
-15 9 -15 25 0 16 6 25 15 25 9 0 15 -9 15 -25z m90 16 c0 -28 -14 -41 -46
-41 -26 0 -34 4 -34 18 0 10 3 22 7 25 10 10 73 8 73 -2z m-406 -24 c18 -13
13 -47 -7 -47 -18 0 -46 31 -40 46 6 17 24 18 47 1z m-34 -52 c18 -19 21 -28
12 -37 -15 -15 -52 16 -52 44 0 25 12 23 40 -7z m608 2 c2 -12 -3 -17 -17 -17
-12 0 -21 6 -21 13 0 31 32 34 38 4z m-321 -21 c-4 -9 -18 -16 -32 -16 -33 0
-36 37 -2 42 28 5 41 -6 34 -26z m51 17 c-2 -10 -11 -19 -21 -21 -16 -3 -17
-1 -7 17 13 25 33 28 28 4z m90 5 c-5 -15 -78 -24 -78 -10 0 16 13 22 48 22
22 0 32 -4 30 -12z m126 -3 c-4 -9 -19 -15 -40 -15 -24 0 -34 5 -34 15 0 11
11 15 40 15 31 0 38 -3 34 -15z m116 -9 c0 -19 -4 -22 -25 -18 -16 3 -25 11
-25 23 0 14 7 19 25 19 20 0 25 -5 25 -24z m-510 -22 c-1 -9 -59 -8 -68 1 -3
2 -2 11 1 19 5 13 11 14 37 2 17 -7 31 -17 30 -22z m60 17 c0 -19 -17 -38 -25
-29 -7 7 7 48 16 48 5 0 9 -9 9 -19z m188 -33 c-2 -18 -11 -24 -37 -26 -28 -3
-33 -1 -27 13 3 9 6 21 6 26 0 5 14 9 31 9 26 0 30 -3 27 -22z m132 13 c0 -25
-14 -41 -36 -41 -19 0 -24 5 -24 25 0 21 5 25 30 25 17 0 30 -4 30 -9z m60
-22 c0 -14 -7 -19 -26 -19 -14 0 -23 3 -21 8 2 4 7 15 10 24 8 23 37 12 37
-13z m-270 1 c0 -11 -7 -23 -15 -27 -21 -7 -25 -2 -18 25 7 28 33 29 33 2z
m324 14 c9 -3 16 -17 16 -31 0 -20 -4 -24 -22 -21 -17 2 -24 11 -26 31 -3 27
4 32 32 21z m-500 -24 c12 -12 -1 -29 -22 -25 -67 14 -71 16 -65 31 4 12 14
14 42 9 20 -4 40 -10 45 -15z m126 14 c0 -18 -24 -44 -40 -44 -20 0 -28 29
-13 43 8 8 53 9 53 1z m323 -51 c15 -4 18 -11 13 -31 -3 -15 -11 -58 -17 -97
-12 -75 -28 -99 -71 -109 -35 -8 -68 32 -68 83 0 20 -9 60 -20 89 -33 86 -33
86 63 78 45 -4 90 -10 100 -13z m-386 -6 c43 7 42 -4 -4 -44 l-38 -33 28 -21
c33 -25 34 -39 5 -67 -48 -44 -71 -44 -129 -4 -62 44 -78 85 -52 137 21 41 25
42 95 34 34 -4 76 -5 95 -2z m203 -49 c22 -63 30 -150 19 -216 l-11 -63 -22
20 c-12 12 -28 21 -34 21 -7 0 -12 7 -12 16 0 8 -11 32 -25 52 -14 20 -25 48
-25 61 0 14 -12 37 -26 53 -21 21 -31 25 -45 17 -32 -17 -22 12 14 42 27 24
41 28 94 29 60 0 61 -1 73 -32z m-140 -149 c0 -12 -29 -24 -37 -16 -3 4 -3 13
0 21 6 16 37 11 37 -5z m45 -43 c20 -30 6 -71 -30 -88 -23 -11 -29 -8 -58 21
-18 18 -27 35 -21 37 5 3 26 15 45 29 43 30 45 30 64 1z m-110 3 c9 -13 7 -15
-27 -23 -18 -4 -28 -2 -28 4 0 6 5 8 10 5 6 -3 10 1 10 9 0 18 25 22 35 5z
m269 -4 c7 -20 63 -19 84 1 15 15 16 15 23 -2 18 -46 11 -63 -32 -74 -22 -6
-53 -10 -67 -8 -25 3 -27 7 -30 51 -3 45 9 64 22 32z m-79 -85 c17 -19 17 -21
-1 -42 -10 -13 -27 -29 -36 -36 -10 -7 -18 -26 -18 -41 0 -28 -59 -99 -101
-121 -25 -14 -24 -7 5 43 14 23 28 59 31 80 5 23 20 50 41 71 19 19 34 41 34
50 0 22 23 20 45 -4z m-80 -30 c-21 -23 -35 -26 -35 -7 0 13 41 38 49 31 2 -2
-4 -13 -14 -24z m269 -11 c-11 -18 -31 -8 -29 14 4 33 4 34 20 13 8 -10 12
-23 9 -27z m-59 21 c19 -8 19 -9 -1 -9 -12 -1 -21 -7 -20 -13 0 -7 -2 -14 -6
-15 -5 -2 -8 -1 -8 2 0 3 0 14 0 25 0 22 5 23 35 10z m15 -74 c0 -17 -52 -16
-58 2 -2 8 7 12 27 12 19 0 31 -5 31 -14z m46 -73 c-6 -38 -16 -76 -22 -87
-11 -17 -13 -17 -51 7 -34 22 -41 32 -50 76 -6 28 -8 52 -6 55 2 2 21 -1 43
-6 31 -8 43 -7 62 6 12 9 25 16 29 16 3 0 1 -30 -5 -67z m-76 -104 c9 -16 18
-19 36 -15 13 4 24 3 24 -2 0 -17 -25 -32 -56 -32 -29 0 -32 3 -36 35 -5 40
14 48 32 14z m40 -75 c-15 -17 -61 -15 -68 4 -2 8 9 12 38 12 37 0 41 -2 30
-16z m28 -71 c3 -45 0 -53 -24 -72 -33 -26 -89 -29 -80 -5 3 9 6 40 6 70 l0
54 29 -6 c17 -4 32 -1 36 6 15 23 30 2 33 -47z m-13 -169 c-19 -30 -49 -31
-69 -2 -26 37 -20 54 24 67 21 6 43 17 47 24 5 7 9 -3 11 -26 2 -23 -3 -48
-13 -63z"/>
</g>
</svg>
